<?xml version="1.0" encoding="utf-8"?>
<!-- Generator: Adobe Illustrator 24.1.0, SVG Export Plug-In . SVG Version: 6.00 Build 0)  -->
<svg version="1.1" id="Logosv" xmlns="http://www.w3.org/2000/svg" xmlns:xlink="http://www.w3.org/1999/xlink" x="0px" y="0px"
	 viewBox="0 0 1235 118.4" style="enable-background:new 0 0 1235 118.4;" xml:space="preserve">
<path d="M398.1-261.7c-0.3,10.2-0.5,20.4-0.5,35.4c0,11,0.1,28.2,0.1,42.3c0,23.5-9,36.5-35.5,36.5c-26.4,0-35.5-12.9-35.5-36.5
	c0-14.1,0.1-31.4,0.1-42.3c0-15-0.3-25.2-0.5-35.4h26c-0.3,19.5-0.5,55.4-0.5,75.3c0,10,3.1,14.4,11,14.4c7.4,0,10.4-4.4,10.4-14.4
	c0-20-0.3-56-0.5-75.3H398.1z"/>
<path d="M475.5-261.7c-0.1,9-0.5,32.3-0.5,56.1c0,25,0,42,0.3,56.4h-26.1c-3.1-10.2-10.6-30.8-17.5-48c-3-9.6-5.2-19.6-7.2-29.7
	h-0.3c0.8,12,1.2,22.6,1.4,32.2c0.1,23.4,0.3,39.1,0.5,45.5h-22.2c0-14.9,0.1-32.2,0.1-56.2c0-23.9,0-41.7-0.1-56.3h29
	c2,7.7,10.5,30,17,50.1c2.4,7.2,4.4,15.9,6,24.8l0.1-0.1c-0.8-10.2-1.2-19.8-1.4-28.8c0-15.6-0.5-35.6-0.9-45.9H475.5L475.5-261.7z"
	/>
<path d="M515-261.7c26.2,0,38.2,9,38.2,53.7c0,47-10.7,58.8-38.7,58.8h-33.3c0.3-15.6,0.5-32.2,0.5-56.1s-0.1-42-0.5-56.4L515-261.7
	L515-261.7z M528.2-206.7c0-30-4.3-33.1-14.5-33.1c-2.4,0-4.6,0-6.9,0.1c-0.3,10.2-0.3,22.8-0.3,34.5c0,14.7,0,24.8,0.1,32.4
	c2.2,0.1,4.4,0.1,6.8,0.1C524-172.7,528.2-176.3,528.2-206.7z"/>
<path d="M616.5-261.7c-0.2,2.7-0.2,7.5-0.2,11.2c0,4.1,0,9.4,0.2,12.3c-12.2-0.1-24.2-0.3-33.8-0.3v21.3c11.5,0,23,0,32.7-0.3
	c0,4.8-0.2,15.9,0,21.3c-9.6-0.3-21.2-0.5-32.7-0.5v22.4c9.8,0,22.2-0.1,33.8-0.3c-0.2,3.1-0.2,8.5-0.2,13c0,3.9,0,9.1,0.2,12.3h-59
	c0.5-15,0.5-32.2,0.5-56.2c0-23.9,0-42.1-0.5-56.3L616.5-261.7L616.5-261.7z"/>
<path d="M672.6-194c11,1.6,15,6,17.8,20.7c1.8,8.4,3.5,18.6,4.7,24H672c-3.6,0-4.2-1.6-5.8-9.3c-3-25.2-4.3-28.6-10.5-28.6
	c-3.2,0-5,0-8.7,0.1c0.2,15.3,0.5,28.5,1.2,37.8h-26c0.2-16.2,0.5-32.2,0.5-56.2c0-23.9-0.2-40.1-0.5-56.3h38.4
	c19.8,0,30.9,8.3,30.9,33.6c0,21.6-5.1,30.9-18.9,33.5L672.6-194L672.6-194z M667.1-223.5c0-15.3-3.8-18-11.5-17.9
	c-1.8-0.1-5.5,0-8.8,0.1c0,12,0,24.1,0.2,35.5c2.4,0,6,0,10,0.1C663.9-205.5,667.1-210.7,667.1-223.5z"/>
<path d="M867.6-149.3c-0.3-4.4-1.2-13.2-2.5-24.3h-11h-11.2c-1.3,10.6-2.4,19.5-2.7,24.3h-25.5c5.7-28,17.4-98.6,19.7-112.5h40.8
	c2.5,14.3,14.2,84.2,20.4,112.5H867.6z M862.6-193c-1.7-12-3.3-24.5-5-35.2c-1.3-7-2.4-14.5-3.2-20.1h-0.9c-0.8,5.5-2,13-3.3,20.2
	c-1.5,10.8-3.3,23.1-5,35c3.3,0.1,6.3,0.1,8.7,0.1H862.6z"/>
<g>
	<path d="M970.3-261.7c-0.2,9-0.5,32.3-0.5,56.1c0,25,0,42,0.3,56.4h-26.1c-3.2-10.2-10.7-30.8-17.5-48c-3-9.6-5.2-19.6-7.2-29.7
		H919c0.8,12,1.2,22.6,1.3,32.2c0.2,23.4,0.3,39.1,0.5,45.5h-22.2c0-14.9,0.2-32.2,0.2-56.2c0-23.9,0-41.7-0.2-56.3h29
		c2,7.7,10.5,30,17,50.1c2.4,7.2,4.3,15.9,6,24.8l0.2-0.1c-0.8-10.2-1.2-19.8-1.3-28.8c0-15.6-0.5-35.6-0.9-45.9H970.3L970.3-261.7z
		"/>
	<path d="M1009.8-261.7c26.2,0,38.2,9,38.2,53.7c0,47-10.7,58.8-38.7,58.8H976c0.3-15.6,0.5-32.2,0.5-56.1s-0.2-42-0.5-56.4
		L1009.8-261.7L1009.8-261.7z M1023-206.7c0-30-4.3-33.1-14.5-33.1c-2.4,0-4.7,0-6.9,0.1c-0.3,10.2-0.3,22.8-0.3,34.5
		c0,14.7,0,24.8,0.2,32.4c2.2,0.1,4.3,0.1,6.8,0.1C1018.8-172.7,1023-176.3,1023-206.7z"/>
</g>
<g>
	<path d="M718-181.5c0,10.2,2.4,13.5,10.2,13.5c7.5,0,9.9-3.1,9.9-9.8c0-8.4-2.8-14.4-14.8-18.8c-21.6-8-27.6-18.6-27.6-37.2
		c0-19.5,10.5-29.7,33-29.7c24.8,0,32.8,9.3,32.8,29.2c0,3.1-0.2,6.5-0.3,10.2c-3-0.1-7.7-0.3-11.8-0.3c-3.8,0-7.2,0-9.5,0.1
		c0.2-2.9,0.2-5.4,0.2-8.1c0-7.4-2.4-11-10.2-11c-6.9,0-9.5,3.3-9.5,9.3c-0.2,7.4,1.8,13,14.8,18.1c18.8,7.4,27,17.5,27,37.2
		c0,20.1-9.3,30.9-32.8,30.9c-25.7,0-34-10.5-34-29.7c0-4,0.2-7.2,0.5-10.6c3.2,0.3,7.7,0.6,12.5,0.6c3.8,0,7.2,0,9.8-0.3L718-181.5
		L718-181.5z"/>
	<path d="M823.2-261.7v12.9v13.5c-5.5-0.1-11.1-0.3-16.2-0.3c0,35.2,0.2,78.1,0.5,86.5c-3.6-0.3-9.5-0.3-13.5-0.3s-9.6,0-13.3,0.3
		c0.5-8.2,0.6-51.1,0.6-86.5c-5.2,0-10.8,0.1-16.5,0.3c0.2-3.6,0.2-9.1,0.2-13.5c0-4.6,0-9.6-0.2-12.9L823.2-261.7L823.2-261.7z"/>
</g>
<path d="M1052.4-149.3c0.3-15.3,0.3-32.4,0.3-56.2c0-24,0-41.1-0.3-56.3h26.1c-0.3,15-0.3,32.1-0.3,56.1c0,23.9,0,41,0.3,56.4
	H1052.4z"/>
<path d="M1155.9-261.7c-0.2,9-0.4,32.3-0.4,56.1c0,25,0,42,0.3,56.4h-26.1c-3.2-10.2-10.7-30.8-17.6-48c-3-9.6-5.2-19.6-7.2-29.7
	h-0.3c0.8,12,1.2,22.6,1.3,32.2c0.2,23.4,0.3,39.1,0.4,45.5h-22.2c0-14.9,0.2-32.2,0.2-56.2c0-23.9,0-41.7-0.2-56.3h28.9
	c1.9,7.7,10.5,30,16.9,50.1c2.4,7.2,4.3,15.9,6,24.8l0.2-0.1c-0.8-10.2-1.2-19.8-1.3-28.8c0-15.6-0.4-35.6-0.9-45.9H1155.9
	L1155.9-261.7z"/>
<path d="M1196.4-192c0.2-2,0.2-6.6,0.2-9c0-3.8,0-7.2-0.2-9.6c5.7,0.1,11.6,0.1,15.9,0.1c5.4,0,12.6,0,19.8-0.3
	c1.8,44.7-3.4,63-34.3,63c-26.6,0-37.5-17-37.5-59.1c-0.2-41.9,11.4-56.4,38.1-56.4c25.8,0,34.3,12.9,34.3,34.4c0,2.5,0,5.1-0.3,8
	c-3.2-0.1-7.7-0.3-12.3-0.3c-4.8,0-9.2,0.1-12.3,0.3c0.2-2.2,0.2-4.4,0.2-6c0-11.4-3.4-15.1-9.8-15.1c-8.7,0-12.8,6.3-12.8,35.4
	s3.4,37,13.2,37c7.7,0,10.2-5.1,10.3-22.5L1196.4-192z"/>
<g>
	<path d="M362.6,3c21.6,0,32.1,9.1,32.1,42.1c0,32.5-9.4,43.2-33.7,43.2c-3.1,0-6-0.2-9.4-0.3c0.1,10.7,0.4,19.9,0.9,27.4h-25.9
		c0.3-16.2,0.3-32.2,0.3-56.2c0-23.8,0-40.8-0.3-56.2H362.6z M370.8,45.7c0-17.8-3.9-21.6-13-21.6c-1.4,0-4.2,0.2-6.8,0.2
		c0,15,0,29.4,0.1,42.6c1.5,0.1,3.5,0.1,5.9,0.1C367.4,67,370.8,63.3,370.8,45.7z"/>
	<g>
		<path d="M449.4,70.8c10.9,1.7,15,6,17.8,20.7c1.8,8.4,3.4,18.6,4.6,24h-23.1c-3.6,0-4.2-1.7-5.9-9.3c-3-25.2-4.3-28.6-10.5-28.6
			c-3.1,0-4.9,0-8.7,0.1c0.2,15.3,0.5,28.5,1.2,37.8H399c0.2-16.2,0.5-32.2,0.5-56.2c0-23.8-0.1-40-0.5-56.2h38.4
			c19.8,0,30.9,8.2,30.9,33.6c0,21.6-5.1,30.9-18.9,33.4V70.8z M443.9,41.2c0-15.3-3.8-18-11.5-17.8c-1.8-0.1-5.5,0-8.8,0.2
			c0,12,0,24.1,0.1,35.5c2.4,0,6,0,10,0.1C440.7,59.2,443.9,54,443.9,41.2z"/>
		<path d="M528.2,115.5c-0.3-4.3-1.2-13.2-2.5-24.3h-10.9h-11.2c-1.3,10.6-2.4,19.5-2.7,24.3h-25.5c5.7-28,17.4-98.5,19.6-112.5
			h40.8c2.5,14.2,14.2,84.1,20.4,112.5H528.2z M523.2,71.7c-1.6-12-3.3-24.4-4.9-35.2c-1.4-7-2.4-14.5-3.1-20.1h-0.9
			c-0.8,5.5-2,13-3.3,20.2c-1.5,10.8-3.3,23.1-4.9,34.9c3.3,0.2,6.3,0.2,8.7,0.2H523.2z"/>
	</g>
	<path d="M685.2,3v12.9v13.5c-5.5-0.1-11.1-0.3-16.2-0.3c0,35.2,0.2,78.1,0.5,86.5c-3.6-0.3-9.4-0.3-13.5-0.3s-9.6,0-13.3,0.3
		c0.5-8.2,0.6-51.1,0.6-86.5c-5.2,0-10.8,0.2-16.5,0.3c0.2-3.6,0.2-9.1,0.2-13.5c0-4.7,0-9.6-0.2-12.9H685.2z"/>
	<g>
		<path d="M688.7,115.5c0.3-15.3,0.3-32.4,0.3-56.2c0-24,0-41.1-0.3-56.2h26.1c-0.3,15-0.3,32.1-0.3,56.1c0,23.8,0,40.9,0.3,56.4
			H688.7z"/>
		<path d="M766.4,41.5c0-14.2-3.6-17.7-10.2-17.7c-7.5,0-11.4,4.3-11.4,33.9c0,30.1,3.9,35.1,11.7,35.1c6.9,0,10.2-5.7,10.2-18.4
			c0-2.2-0.1-4.8-0.3-7.5c4.2,0.1,8.1,0.1,12.1,0.1s8.1,0,12.3-0.1c0,2.7,0.2,5.4,0.2,9c0,28-11.5,41.1-34.8,41.1
			c-25,0-36.9-14.1-36.9-59.1c0-42.3,11.1-56.4,37.2-56.4c25,0,34.2,12,34.2,36.7c0,4.2-0.1,8.1-0.3,12.1c-4-0.1-8.2-0.1-12.3-0.1
			s-7.8,0-11.8,0.1C766.4,46.8,766.4,43.8,766.4,41.5z"/>
		<path d="M842.2,115.5c-0.3-4.3-1.2-13.2-2.5-24.3h-10.9h-11.2c-1.3,10.6-2.4,19.5-2.7,24.3h-25.5c5.7-28,17.4-98.5,19.6-112.5
			h40.8c2.5,14.2,14.2,84.1,20.4,112.5H842.2z M837.2,71.7c-1.6-12-3.3-24.4-4.9-35.2c-1.4-7-2.4-14.5-3.1-20.1h-0.9
			c-0.8,5.5-2,13-3.3,20.2c-1.5,10.8-3.3,23.1-4.9,34.9c3.3,0.2,6.3,0.2,8.7,0.2H837.2z"/>
		<path d="M899.8,3c-0.3,8.4-0.6,30.9-0.6,55.8c0,9.9,0,21.7,0.1,30.6c6.4,0,15-0.2,22.3-0.5c-0.1,4-0.1,8.5-0.1,12.9
			c0,4.6,0,9.4,0.1,13.6h-48.4c0-7.3,0.5-32.2,0.5-56.2c0-26.4,0-45.6-0.5-56.2H899.8z"/>
	</g>
	<g>
		<path d="M599.7,41.5c0-14.2-3.6-17.7-10.2-17.7c-7.5,0-11.4,4.3-11.4,33.9c0,30.1,3.9,35.1,11.7,35.1c6.9,0,10.2-5.7,10.2-18.4
			c0-2.2-0.1-4.8-0.3-7.5c4.2,0.1,8.1,0.1,12.1,0.1s8.1,0,12.3-0.1c0,2.7,0.1,5.4,0.1,9c0,28-11.5,41.1-34.8,41.1
			c-25,0-36.9-14.1-36.9-59.1c0-42.3,11.1-56.4,37.2-56.4c25,0,34.2,12,34.2,36.7c0,4.2-0.1,8.1-0.3,12.1c-4-0.1-8.2-0.1-12.3-0.1
			s-7.8,0-11.8,0.1C599.7,46.8,599.7,43.8,599.7,41.5z"/>
	</g>
</g>
</svg>
