<?xml version="1.0" encoding="utf-8"?>
<!-- Generator: Adobe Illustrator 24.1.0, SVG Export Plug-In . SVG Version: 6.00 Build 0)  -->
<svg version="1.1" id="Logosv" xmlns="http://www.w3.org/2000/svg" xmlns:xlink="http://www.w3.org/1999/xlink" x="0px" y="0px"
	 viewBox="0 0 1235 236.6" style="enable-background:new 0 0 1235 236.6;" xml:space="preserve">
<path d="M25,83.3c0,10.2,2.4,13.5,10.2,13.5c7.5,0,9.9-3.2,9.9-9.8c0-8.4-2.8-14.4-14.9-18.8C8.6,60.4,2.6,49.7,2.6,31.1
	c0-19.5,10.5-29.7,33-29.7c24.8,0,32.8,9.3,32.8,29.2c0,3.1-0.2,6.4-0.3,10.2c-3-0.2-7.7-0.3-11.8-0.3c-3.8,0-7.2,0-9.5,0.2
	c0.1-2.9,0.1-5.4,0.1-8.1c0-7.3-2.4-10.9-10.2-10.9c-6.9,0-9.5,3.3-9.5,9.3c-0.1,7.3,1.8,13,14.8,18.1c18.8,7.3,27,17.6,27,37.2
	c0,20.1-9.3,30.9-32.8,30.9c-25.6,0-34-10.5-34-29.7c0-4.1,0.2-7.2,0.5-10.7c3.2,0.3,7.7,0.6,12.4,0.6c3.8,0,7.2,0,9.8-0.3L25,83.3
	L25,83.3z"/>
<path d="M109.3,117.2c-25,0-37.8-16.5-37.8-60.2c0-43,14.1-55.7,37.8-55.7s38.2,12.6,38.2,55.7C147.6,100.7,134.4,117.2,109.3,117.2
	z M121.8,57.5c0-26.8-4.3-33.4-12.3-33.4s-12.4,6.5-12.4,33.4c0,27.9,4.3,35.6,12.4,35.6S121.8,85.3,121.8,57.5z"/>
<path d="M241.8,3.1c-0.3,14.7-0.4,31.5-0.4,56.1c0,23.9,0.1,40.2,0.4,56.4h-24.4c0.4-17.6,0.8-29.8,0.8-48.3
	c0-9.2,0.6-20.4,1.1-30.9l-0.6-0.2c-1.6,10.3-3.6,20.8-5.1,27.5l-12.6,51.9h-10.5l-12.7-52.7c-1.6-6.9-3.6-17.2-5.2-26.8l-0.4,0.2
	c0.3,10.8,0.9,21,1.1,31c0,18.6,0.3,30.9,0.6,48.3H152c0.3-16.2,0.4-32.6,0.4-56.4c0-24.6-0.1-41.4-0.3-56.1h32.1
	c2.2,9.9,6.1,28.2,10.5,45.9c1.1,5.2,2.1,12.9,3.1,20h0.6c1.2-7.2,2.2-14.5,3.3-19.8c4.1-17.7,8.4-36,10.5-46L241.8,3.1L241.8,3.1z"
	/>
<path d="M306.6,3.1c-0.1,2.7-0.1,7.5-0.1,11.2c0,4.1,0,9.4,0.1,12.3c-12.1-0.1-24.1-0.3-33.8-0.3v21.3c11.5,0,23,0,32.7-0.3
	c0,4.8-0.1,15.9,0,21.3c-9.6-0.3-21.1-0.4-32.7-0.4v22.3c9.8,0,22.2-0.2,33.8-0.3c-0.1,3.2-0.1,8.6-0.1,13.1c0,3.9,0,9.2,0.1,12.3
	h-58.9c0.4-15,0.4-32.2,0.4-56.2c0-23.8,0-42.2-0.4-56.2L306.6,3.1L306.6,3.1z"/>
<path d="M369.3,3.1V16v13.5c-5.5-0.1-11.1-0.3-16.2-0.3c0,35.2,0.1,78.1,0.5,86.6c-3.6-0.3-9.5-0.3-13.5-0.3s-9.6,0-13.4,0.3
	c0.5-8.2,0.6-51.2,0.6-86.6c-5.2,0-10.8,0.1-16.5,0.3c0.1-3.6,0.1-9.1,0.1-13.5c0-4.6,0-9.6-0.1-12.9C310.8,3.1,369.3,3.1,369.3,3.1
	z"/>
<path d="M444.9,3.1c-0.3,15.3-0.5,32.4-0.5,56.2s0.1,40,0.5,56.2h-25.8c0.1-11.7,0.3-30.3,0.5-43.8c-3.5,0-7,0-10.8,0
	c-3.6,0-7.2,0-10.6,0c0,13.5,0.1,31.9,0.5,43.8h-25.8c0.5-16.2,0.5-32.4,0.5-56.2s0-40.9-0.5-56.2h25.8c-0.3,11.2-0.5,30.4-0.5,44.2
	c3.5,0.2,7,0.2,10.6,0.2c3.8,0,7.4,0,10.8-0.2c-0.1-13.8-0.1-33-0.5-44.2C419.1,3.1,444.9,3.1,444.9,3.1z"/>
<path d="M450.9,115.6c0.3-15.3,0.3-32.4,0.3-56.2c0-24,0-41.1-0.3-56.2H477c-0.3,15-0.3,32.1-0.3,56.1c0,23.8,0,41,0.3,56.4H450.9z"
	/>
<path d="M554.7,3.1c-0.2,9-0.5,32.2-0.5,56.1c0,25,0,42,0.3,56.4h-26.1c-3.2-10.2-10.7-30.8-17.5-48c-3-9.6-5.2-19.7-7.2-29.7h-0.3
	c0.8,12,1.2,22.6,1.4,32.3c0.1,23.4,0.3,39.2,0.5,45.4H483c0-14.8,0.1-32.2,0.1-56.2c0-23.8,0-41.7-0.1-56.2h29
	c2,7.6,10.5,30,17,50.1c2.4,7.2,4.3,15.9,6,24.8l0.2-0.2c-0.8-10.2-1.2-19.8-1.3-28.8c0-15.6-0.5-35.5-0.9-45.9
	C532.8,3.1,554.7,3.1,554.7,3.1z"/>
<path d="M595.2,72.8c0.2-1.9,0.2-6.6,0.2-9c0-3.8,0-7.2-0.2-9.6c5.7,0.2,11.5,0.2,15.9,0.2c5.4,0,12.6,0,19.8-0.3
	c1.8,44.7-3.5,63-34.3,63C570,117.1,559,100.1,559,58c-0.2-41.8,11.4-56.4,38.1-56.4c25.8,0,34.3,12.9,34.3,34.3c0,2.5,0,5.1-0.3,8
	c-3.2-0.2-7.7-0.3-12.3-0.3c-4.8,0-9.2,0.2-12.3,0.3c0.2-2.2,0.2-4.3,0.2-6c0-11.4-3.5-15.1-9.8-15.1c-8.7,0-12.8,6.3-12.8,35.4
	s3.5,37.1,13.2,37.1c7.7,0,10.2-5.1,10.3-22.5L595.2,72.8z"/>
<path d="M241.6,121.3c-0.3,14.7-0.4,31.5-0.4,56.1c0,23.9,0.1,40.2,0.4,56.4h-24.4c0.4-17.6,0.8-29.9,0.8-48.3
	c0-9.1,0.6-20.4,1.1-30.9l-0.6-0.1c-1.6,10.4-3.6,20.9-5.1,27.4l-12.6,51.9h-10.5l-12.8-52.6c-1.6-6.9-3.6-17.2-5.2-26.9l-0.4,0.1
	c0.3,10.8,0.9,21,1.1,31.1c0,18.6,0.3,30.9,0.6,48.3h-21.6c0.3-16.2,0.4-32.6,0.4-56.4c0-24.6-0.1-41.4-0.3-56.1H184
	c2.2,9.9,6.1,28.2,10.5,45.9c1.1,5.2,2.1,12.9,3.1,19.9h0.6c1.2-7.2,2.2-14.6,3.3-19.8c4.1-17.7,8.4-36,10.5-46.1H241.6z"/>
<path d="M283.8,235.4c-25,0-37.8-16.5-37.8-60.1c0-43.1,14.1-55.7,37.8-55.7s38.2,12.6,38.2,55.7C322,218.9,308.8,235.4,283.8,235.4
	z M296.2,175.7c0-26.9-4.4-33.4-12.3-33.4c-8,0-12.5,6.4-12.5,33.4c0,27.9,4.4,35.6,12.5,35.6S296.2,203.5,296.2,175.7z"/>
<path d="M376.8,189.1c11,1.6,15,6,17.9,20.7c1.8,8.4,3.5,18.6,4.6,24h-23.1c-3.6,0-4.2-1.6-5.9-9.3c-3-25.2-4.4-28.6-10.5-28.6
	c-3.1,0-5,0-8.7,0.1c0.1,15.3,0.5,28.5,1.2,37.8h-26c0.1-16.2,0.5-32.2,0.5-56.2c0-23.9-0.1-40.1-0.5-56.2h38.4
	c19.8,0,30.9,8.2,30.9,33.6c0,21.6-5.1,30.9-18.9,33.4L376.8,189.1L376.8,189.1z M371.3,159.5c0-15.3-3.8-18-11.5-17.9
	c-1.8-0.1-5.5,0-8.9,0.1c0,12,0,24.1,0.1,35.6c2.4,0,6,0,10,0.1C368.1,177.5,371.3,172.3,371.3,159.5z"/>
<path d="M461.3,121.3c-0.1,2.7-0.1,7.5-0.1,11.2c0,4.1,0,9.4,0.1,12.3c-12.1-0.1-24.1-0.3-33.8-0.3v21.3c11.5,0,23,0,32.7-0.3
	c0,4.8-0.1,15.9,0,21.3c-9.6-0.3-21.1-0.4-32.7-0.4v22.4c9.8,0,22.2-0.1,33.8-0.3c-0.1,3.1-0.1,8.6-0.1,13.1c0,3.9,0,9.1,0.1,12.3
	h-59c0.5-15,0.5-32.2,0.5-56.2c0-23.9,0-42.2-0.5-56.2L461.3,121.3L461.3,121.3z"/>
</svg>
