<?xml version="1.0" encoding="utf-8"?>
<!-- Generator: Adobe Illustrator 24.1.0, SVG Export Plug-In . SVG Version: 6.00 Build 0)  -->
<svg version="1.1" id="Logosv" xmlns="http://www.w3.org/2000/svg" xmlns:xlink="http://www.w3.org/1999/xlink" x="0px" y="0px"
	 viewBox="0 0 1235 118.4" style="enable-background:new 0 0 1235 118.4;" xml:space="preserve">
<path d="M398.1,2.9c-0.3,10.2-0.5,20.4-0.5,35.4c0,11,0.1,28.2,0.1,42.3c0,23.5-9,36.5-35.5,36.5c-26.4,0-35.5-12.9-35.5-36.5
	c0-14.1,0.1-31.4,0.1-42.3c0-15-0.3-25.2-0.5-35.4h26c-0.3,19.5-0.5,55.4-0.5,75.3c0,10,3.1,14.4,11,14.4c7.4,0,10.4-4.4,10.4-14.4
	c0-20-0.3-56-0.5-75.3H398.1z"/>
<path d="M475.5,2.9c-0.1,9-0.5,32.3-0.5,56.1c0,25,0,42,0.3,56.4h-26.1c-3.1-10.2-10.6-30.8-17.5-48c-3-9.6-5.2-19.6-7.2-29.7h-0.3
	c0.8,12,1.2,22.6,1.4,32.2c0.1,23.4,0.3,39.1,0.5,45.5h-22.2c0-14.9,0.1-32.2,0.1-56.2c0-23.9,0-41.7-0.1-56.2h29
	c2,7.6,10.5,30,17,50.1c2.4,7.2,4.4,15.9,6,24.8l0.1-0.1c-0.8-10.2-1.2-19.8-1.4-28.8c0-15.6-0.5-35.6-0.9-45.9L475.5,2.9L475.5,2.9
	z"/>
<path d="M515,2.9c26.2,0,38.2,9,38.2,53.7c0,47-10.7,58.8-38.7,58.8h-33.3c0.3-15.6,0.5-32.2,0.5-56.1s-0.1-42-0.5-56.4L515,2.9
	L515,2.9z M528.2,57.9c0-30-4.3-33.1-14.5-33.1c-2.4,0-4.6,0-6.9,0.1c-0.3,10.2-0.3,22.8-0.3,34.5c0,14.7,0,24.8,0.1,32.4
	c2.2,0.1,4.4,0.1,6.8,0.1C524,92,528.2,88.4,528.2,57.9z"/>
<path d="M616.5,2.9c-0.2,2.7-0.2,7.5-0.2,11.2c0,4.1,0,9.4,0.2,12.3c-12.2-0.1-24.2-0.3-33.8-0.3v21.3c11.5,0,23,0,32.7-0.3
	c0,4.8-0.2,15.9,0,21.3c-9.6-0.3-21.2-0.5-32.7-0.5v22.4c9.8,0,22.2-0.1,33.8-0.3c-0.2,3.1-0.2,8.5-0.2,13c0,3.9,0,9.1,0.2,12.3h-59
	c0.5-15,0.5-32.2,0.5-56.2c0-23.9,0-42.1-0.5-56.2L616.5,2.9L616.5,2.9z"/>
<path d="M672.6,70.7c11,1.6,15,6,17.8,20.7c1.8,8.4,3.5,18.6,4.7,24H672c-3.6,0-4.2-1.6-5.8-9.3c-3-25.2-4.3-28.6-10.5-28.6
	c-3.2,0-5,0-8.7,0.1c0.2,15.3,0.5,28.5,1.2,37.8h-26c0.2-16.2,0.5-32.2,0.5-56.2c0-23.9-0.2-40.1-0.5-56.2h38.4
	c19.8,0,30.9,8.2,30.9,33.6c0,21.6-5.1,30.9-18.9,33.5L672.6,70.7L672.6,70.7z M667.1,41.1c0-15.3-3.8-18-11.5-17.9
	c-1.8-0.1-5.5,0-8.8,0.1c0,12,0,24.1,0.2,35.5c2.4,0,6,0,10,0.1C663.9,59.1,667.1,53.9,667.1,41.1z"/>
<path d="M867.6,115.4c-0.3-4.4-1.2-13.2-2.5-24.3h-11h-11.2c-1.3,10.6-2.4,19.5-2.7,24.3h-25.5c5.7-28,17.4-98.6,19.7-112.5h40.8
	c2.5,14.2,14.2,84.1,20.4,112.5H867.6z M862.6,71.6c-1.7-12-3.3-24.5-5-35.2c-1.3-7-2.4-14.5-3.2-20.1h-0.9c-0.8,5.5-2,13-3.3,20.2
	c-1.5,10.8-3.3,23.1-5,35c3.3,0.1,6.3,0.1,8.7,0.1H862.6z"/>
<g>
	<path d="M970.3,2.9c-0.2,9-0.5,32.3-0.5,56.1c0,25,0,42,0.3,56.4h-26.1c-3.2-10.2-10.7-30.8-17.5-48c-3-9.6-5.2-19.6-7.2-29.7H919
		c0.8,12,1.2,22.6,1.3,32.2c0.2,23.4,0.3,39.1,0.5,45.5h-22.2c0-14.9,0.2-32.2,0.2-56.2c0-23.9,0-41.7-0.2-56.2h29
		c2,7.6,10.5,30,17,50.1c2.4,7.2,4.3,15.9,6,24.8l0.2-0.1c-0.8-10.2-1.2-19.8-1.3-28.8c0-15.6-0.5-35.6-0.9-45.9L970.3,2.9
		L970.3,2.9z"/>
	<path d="M1009.8,2.9c26.2,0,38.2,9,38.2,53.7c0,47-10.7,58.8-38.7,58.8H976c0.3-15.6,0.5-32.2,0.5-56.1s-0.2-42-0.5-56.4
		L1009.8,2.9L1009.8,2.9z M1023,57.9c0-30-4.3-33.1-14.5-33.1c-2.4,0-4.7,0-6.9,0.1c-0.3,10.2-0.3,22.8-0.3,34.5
		c0,14.7,0,24.8,0.2,32.4c2.2,0.1,4.3,0.1,6.8,0.1C1018.8,92,1023,88.4,1023,57.9z"/>
</g>
<g>
	<path d="M718,83.1c0,10.2,2.4,13.5,10.2,13.5c7.5,0,9.9-3.1,9.9-9.8c0-8.4-2.8-14.4-14.8-18.8c-21.6-8-27.6-18.6-27.6-37.2
		c0-19.5,10.5-29.7,33-29.7c24.8,0,32.8,9.3,32.8,29.2c0,3.1-0.2,6.5-0.3,10.2c-3-0.1-7.7-0.3-11.8-0.3c-3.8,0-7.2,0-9.5,0.1
		c0.2-2.9,0.2-5.4,0.2-8.1c0-7.4-2.4-11-10.2-11c-6.9,0-9.5,3.3-9.5,9.3c-0.2,7.4,1.8,13,14.8,18.1c18.8,7.4,27,17.5,27,37.2
		c0,20.1-9.3,30.9-32.8,30.9c-25.7,0-34-10.5-34-29.7c0-4,0.2-7.2,0.5-10.6c3.2,0.3,7.7,0.6,12.5,0.6c3.8,0,7.2,0,9.8-0.3L718,83.1
		L718,83.1z"/>
	<path d="M823.2,2.9v12.9v13.5c-5.5-0.1-11.1-0.3-16.2-0.3c0,35.2,0.2,78.1,0.5,86.5c-3.6-0.3-9.5-0.3-13.5-0.3s-9.6,0-13.3,0.3
		c0.5-8.2,0.6-51.1,0.6-86.5c-5.2,0-10.8,0.1-16.5,0.3c0.2-3.6,0.2-9.1,0.2-13.5c0-4.6,0-9.6-0.2-12.9L823.2,2.9L823.2,2.9z"/>
</g>
<path d="M1052.4,115.4c0.3-15.3,0.3-32.4,0.3-56.2c0-24,0-41.1-0.3-56.2h26.1c-0.3,15-0.3,32.1-0.3,56.1c0,23.9,0,41,0.3,56.4
	H1052.4z"/>
<path d="M1155.9,2.9c-0.2,9-0.4,32.3-0.4,56.1c0,25,0,42,0.3,56.4h-26.1c-3.2-10.2-10.7-30.8-17.6-48c-3-9.6-5.2-19.6-7.2-29.7h-0.3
	c0.8,12,1.2,22.6,1.3,32.2c0.2,23.4,0.3,39.1,0.4,45.5h-22.2c0-14.9,0.2-32.2,0.2-56.2c0-23.9,0-41.7-0.2-56.2h28.9
	c1.9,7.6,10.5,30,16.9,50.1c2.4,7.2,4.3,15.9,6,24.8l0.2-0.1c-0.8-10.2-1.2-19.8-1.3-28.8c0-15.6-0.4-35.6-0.9-45.9L1155.9,2.9
	L1155.9,2.9z"/>
<path d="M1196.4,72.6c0.2-2,0.2-6.6,0.2-9c0-3.8,0-7.2-0.2-9.6c5.7,0.1,11.6,0.1,15.9,0.1c5.4,0,12.6,0,19.8-0.3
	c1.8,44.7-3.4,63-34.3,63c-26.6,0-37.5-17-37.5-59.1c-0.2-41.9,11.4-56.4,38.1-56.4c25.8,0,34.3,12.9,34.3,34.4c0,2.5,0,5.1-0.3,8
	c-3.2-0.1-7.7-0.3-12.3-0.3c-4.8,0-9.2,0.1-12.3,0.3c0.2-2.2,0.2-4.4,0.2-6c0-11.4-3.4-15.1-9.8-15.1c-8.7,0-12.8,6.3-12.8,35.4
	s3.4,37,13.2,37c7.7,0,10.2-5.1,10.3-22.5L1196.4,72.6z"/>
</svg>
