<svg width="578" height="323" viewBox="0 0 578 323" fill="none" xmlns="http://www.w3.org/2000/svg">
  <path d="M22.0043 76.0651C22.0043 85.3983 24.1992 88.4178 31.3327 88.4178C38.1919 88.4178 40.3869 85.5355 40.3869 79.4965C40.3869 71.8103 37.7804 66.3202 26.8057 62.3399C7.05126 55.0656 1.56392 45.3207 1.56392 28.3014C1.56392 10.4586 11.1668 1.12549 31.7443 1.12549C54.3796 1.12549 61.7875 9.63512 61.7875 27.8897C61.7875 30.7719 61.6503 33.7915 61.5131 37.2228C58.7695 37.0855 54.5168 36.9483 50.6756 36.9483C47.246 36.9483 44.0908 36.9483 42.0331 37.0855C42.1702 34.4778 42.1702 32.1445 42.1702 29.6739C42.1702 22.9486 39.9753 19.6545 32.8418 19.6545C26.5313 19.6545 24.1992 22.6741 24.1992 28.1642C24.062 34.8895 25.8454 40.1051 37.7804 44.7717C54.9283 51.497 62.4734 60.8302 62.4734 78.8102C62.4734 97.202 53.968 107.084 32.4302 107.084C8.97183 107.084 1.28955 97.4765 1.28955 79.9082C1.28955 76.2024 1.42673 73.3201 1.7011 70.1633C4.58196 70.4378 8.69746 70.7123 13.0873 70.7123C16.5169 70.7123 19.6721 70.7123 22.0043 70.4378V76.0651Z" fill="white"/>
  <path d="M99.1838 107.084C76.2741 107.084 64.6135 91.9864 64.6135 52.046C64.6135 12.6547 77.5088 1.12549 99.1838 1.12549C120.859 1.12549 134.166 12.6547 134.166 52.046C134.166 91.9864 122.093 107.084 99.1838 107.084ZM110.57 52.4578C110.57 27.8897 106.592 21.8506 99.321 21.8506C92.0502 21.8506 87.9347 27.7524 87.9347 52.4578C87.9347 77.9867 91.9131 84.9865 99.321 84.9865C106.729 84.9865 110.57 77.8494 110.57 52.4578Z" fill="white"/>
  <path d="M220.317 2.63525C220.042 16.086 219.905 31.4582 219.905 53.9675C219.905 75.7906 220.042 90.7511 220.317 105.574H197.956C198.367 89.5158 198.642 78.2612 198.642 61.3792C198.642 53.0068 199.19 42.7129 199.602 33.1052L199.053 32.968C197.544 42.4384 195.761 52.046 194.389 58.0851L182.866 105.574H173.263L161.602 57.3988C160.093 51.0852 158.31 41.6149 156.801 32.8307L156.389 32.968C156.664 42.8501 157.212 52.1833 157.349 61.3792C157.349 78.3984 157.624 89.6531 157.898 105.574H138.144C138.418 90.7511 138.555 75.7906 138.555 53.9675C138.555 31.4582 138.418 16.086 138.281 2.63525H167.638C169.696 11.6939 173.263 28.4386 177.241 44.6344C178.201 49.4382 179.162 56.4381 180.122 62.8889H180.671C181.768 56.3008 182.728 49.5755 183.689 44.7717C187.393 28.5759 191.371 11.8311 193.292 2.63525H220.317Z" fill="white"/>
  <path d="M279.58 2.63525C279.443 5.10579 279.443 9.49786 279.443 12.9292C279.443 16.635 279.443 21.576 279.58 24.1838C268.468 24.0466 257.494 23.9093 248.714 23.9093V43.3991C259.277 43.3991 269.703 43.3991 278.62 43.1246C278.62 47.5167 278.483 57.6734 278.62 62.6144C269.84 62.3399 259.277 62.2027 248.714 62.2027V82.6532C257.631 82.6532 269.017 82.516 279.58 82.3787C279.443 85.261 279.443 90.2021 279.443 94.3197C279.443 97.8882 279.443 102.692 279.58 105.574H225.667C226.079 91.8491 226.079 76.0651 226.079 54.1048C226.079 32.2817 226.079 15.537 225.667 2.63525H279.58Z" fill="white"/>
  <path d="M336.923 2.63525V14.4389V26.7916C331.847 26.6544 326.771 26.5171 322.107 26.5171C322.107 58.7714 322.244 98.0255 322.519 105.712C319.226 105.437 313.876 105.437 310.172 105.437C306.468 105.437 301.392 105.437 297.963 105.712C298.374 98.1627 298.511 58.9086 298.511 26.5171C293.71 26.5171 288.634 26.6544 283.421 26.7916C283.558 23.4976 283.558 18.4192 283.558 14.4389C283.558 10.1841 283.558 5.6548 283.421 2.63525H336.923Z" fill="white"/>
  <path d="M406.063 2.63525C405.789 16.635 405.652 32.2817 405.652 54.1048C405.652 75.9279 405.789 90.7511 406.063 105.574H382.468C382.605 94.8687 382.742 77.8494 382.879 65.4967C379.724 65.4967 376.432 65.4967 373.002 65.4967C369.71 65.4967 366.417 65.4967 363.262 65.4967C363.262 77.8494 363.399 94.7314 363.674 105.574H340.078C340.49 90.7511 340.49 75.9279 340.49 54.1048C340.49 32.2817 340.49 16.635 340.078 2.63525H363.674C363.399 12.9292 363.262 30.4974 363.262 43.1246C366.417 43.2619 369.71 43.2619 373.002 43.2619C376.432 43.2619 379.724 43.2619 382.879 43.1246C382.742 30.4974 382.742 12.9292 382.468 2.63525H406.063Z" fill="white"/>
  <path d="M411.551 105.574C411.825 91.5746 411.825 75.9279 411.825 54.1048C411.825 32.1445 411.825 16.4977 411.551 2.63525H435.421C435.146 16.3605 435.146 32.0072 435.146 53.9675C435.146 75.7906 435.146 91.4374 435.421 105.574H411.551Z" fill="white"/>
  <path d="M506.473 2.63525C506.335 10.8704 506.061 32.1445 506.061 53.9675C506.061 76.8886 506.061 92.3981 506.335 105.574H482.465C479.585 96.2412 472.725 77.4377 466.415 61.6537C463.671 52.8695 461.614 43.6736 459.83 34.4777H459.556C460.242 45.4579 460.653 55.2028 460.79 63.9869C460.928 85.3983 461.065 99.8098 461.202 105.574H440.899C440.899 91.9864 441.036 76.0651 441.036 54.1048C441.036 32.2817 441.036 15.9487 440.899 2.63525H467.375C469.159 9.63511 476.978 30.0857 482.877 48.4775C485.072 55.0656 486.855 63.0262 488.364 71.1241L488.501 70.9868C487.816 61.6537 487.404 52.8695 487.267 44.6344C487.267 30.3602 486.855 12.1056 486.444 2.63525H506.473Z" fill="white"/>
  <path d="M543.512 66.4575C543.649 64.6732 543.649 60.4184 543.649 58.2223C543.649 54.791 543.649 51.6342 543.512 49.4382C548.725 49.5754 554.075 49.5754 558.053 49.5754C562.992 49.5754 569.577 49.5754 576.162 49.3009C577.808 90.2021 573.007 106.947 544.747 106.947C520.465 106.947 510.451 91.4373 510.451 52.8695C510.314 14.5762 520.877 1.2627 545.295 1.2627C568.891 1.2627 576.71 13.0664 576.71 32.6934C576.71 35.0267 576.71 37.36 576.436 39.9678C573.555 39.8305 569.44 39.6933 565.187 39.6933C560.797 39.6933 556.819 39.8305 553.938 39.9678C554.075 37.909 554.075 35.9875 554.075 34.4777C554.075 24.0465 550.92 20.6152 545.158 20.6152C537.202 20.6152 533.498 26.3798 533.498 53.0067C533.498 79.6337 536.653 86.908 545.57 86.908C552.566 86.908 554.898 82.2415 555.035 66.3202L543.512 66.4575Z" fill="white"/>
  <path d="M220.18 110.79C219.905 124.241 219.768 139.613 219.768 162.122C219.768 183.945 219.905 198.906 220.18 213.729H197.819C198.23 197.671 198.505 186.416 198.505 169.534C198.505 161.162 199.053 150.868 199.465 141.26L198.916 141.123C197.407 150.593 195.624 160.201 194.252 166.24L182.728 213.729H173.126L161.465 165.554C159.956 159.24 158.173 149.77 156.664 140.986L156.252 141.123C156.526 151.005 157.075 160.338 157.212 169.534C157.212 186.553 157.487 197.808 157.761 213.729H138.007C138.281 198.906 138.418 183.945 138.418 162.122C138.418 139.613 138.281 124.241 138.144 110.79H167.501C169.559 119.849 173.126 136.593 177.104 152.789C178.064 157.593 179.024 164.593 179.985 171.044H180.533C181.631 164.456 182.591 157.73 183.552 152.926C187.255 136.731 191.234 119.986 193.154 110.79H220.18Z" fill="white"/>
  <path d="M258.728 215.23C235.819 215.23 224.158 200.132 224.158 160.192C224.158 120.8 237.053 109.271 258.728 109.271C280.403 109.271 293.71 120.8 293.71 160.192C293.701 200.132 281.629 215.23 258.728 215.23ZM270.114 160.603C270.114 136.035 266.136 129.996 258.865 129.996C251.595 129.996 247.479 135.898 247.479 160.603C247.479 186.132 251.457 193.132 258.865 193.132C266.273 193.132 270.114 185.995 270.114 160.603Z" fill="white"/>
  <path d="M343.791 172.819C353.806 174.328 357.51 178.309 360.116 191.76C361.762 199.446 363.271 208.779 364.369 213.72H343.242C339.95 213.72 339.401 212.21 337.892 205.21C335.149 182.152 333.914 178.995 328.289 178.995C325.409 178.995 323.762 178.995 320.333 179.132C320.47 193.132 320.744 205.21 321.43 213.72H297.698C297.835 198.897 298.109 184.211 298.109 162.25C298.109 140.427 297.972 125.604 297.698 110.781H332.816C350.925 110.781 361.076 118.33 361.076 141.525C361.076 161.29 356.412 169.799 343.791 172.132V172.819ZM338.715 145.789C338.715 131.789 335.286 129.319 328.152 129.456C326.506 129.319 323.076 129.456 320.058 129.593C320.058 140.574 320.058 151.691 320.196 162.122C322.391 162.122 325.683 162.122 329.387 162.259C335.844 162.25 338.715 157.456 338.715 145.789Z" fill="white"/>
  <path d="M421.026 110.79C420.888 113.261 420.888 117.653 420.888 121.084C420.888 124.79 420.888 129.731 421.026 132.339C409.914 132.201 398.939 132.064 390.159 132.064V151.554C400.722 151.554 411.148 151.554 420.065 151.279C420.065 155.671 419.928 165.828 420.065 170.769C411.285 170.495 400.722 170.357 390.159 170.357V190.808C399.076 190.808 410.462 190.671 421.026 190.534C420.888 193.416 420.888 198.357 420.888 202.474C420.888 206.043 420.888 210.847 421.026 213.729H367.112C367.524 200.004 367.524 184.22 367.524 162.26C367.524 140.436 367.524 123.692 367.112 110.79H421.026Z" fill="white"/>
  <path d="M361.908 218.936C361.771 227.171 361.497 248.445 361.497 270.268C361.497 293.189 361.497 308.698 361.771 321.875H337.901C335.02 312.542 329.533 293.738 323.223 277.954C320.479 269.17 318.421 259.974 316.638 250.778H316.364C317.049 261.758 317.461 271.503 317.598 280.287C317.735 301.699 317.873 316.11 318.01 321.875H297.707C297.707 308.287 297.844 292.365 297.844 270.405C297.844 248.582 297.844 232.249 297.707 218.936H324.183C325.966 225.935 332.414 246.386 338.313 264.778C340.508 271.366 342.291 279.326 343.8 287.424L343.937 287.287C343.251 277.954 342.84 269.17 342.703 260.935C342.703 246.66 342.291 228.406 341.88 218.936H361.908Z" fill="white"/>
  <path d="M421.025 218.936C420.888 221.406 420.888 225.798 420.888 229.229C420.888 232.935 420.888 237.876 421.025 240.484C409.914 240.347 398.939 240.21 390.159 240.21V259.699C400.722 259.699 411.148 259.699 420.065 259.425C420.065 263.817 419.928 273.974 420.065 278.915C411.285 278.64 400.722 278.503 390.159 278.503V298.954C399.076 298.954 410.462 298.816 421.025 298.679C420.888 301.561 420.888 306.502 420.888 310.62C420.888 314.189 420.888 318.992 421.025 321.875H367.112C367.524 308.149 367.524 292.365 367.524 270.405C367.524 248.582 367.524 231.837 367.112 218.936H421.025Z" fill="white"/>
  <path d="M472.332 321.875C472.058 317.894 471.235 309.796 470 299.64H459.986H449.697C448.462 309.385 447.502 317.483 447.227 321.875H423.906C429.119 296.208 439.82 231.7 441.877 218.936H479.191C481.523 231.975 492.224 295.934 497.848 321.875H472.332ZM467.805 281.797C466.296 270.817 464.787 259.425 463.278 249.543C462.043 243.092 461.083 236.229 460.397 231.151H459.574C458.888 236.229 457.791 243.092 456.556 249.68C455.184 259.562 453.538 270.817 452.029 281.66C455.047 281.797 457.791 281.797 459.986 281.797H467.805Z" fill="white"/>
  <path d="M546.823 280.974C556.837 282.483 560.541 286.464 563.148 299.914C564.794 307.6 566.303 316.934 567.4 321.875H546.274C542.982 321.875 542.433 320.365 540.924 313.365C538.18 290.307 536.946 287.15 531.321 287.15C528.44 287.15 526.794 287.15 523.364 287.287C523.502 301.287 523.776 313.365 524.462 321.875H500.729C500.866 307.051 501.141 292.365 501.141 270.405C501.141 248.582 501.003 233.759 500.729 218.936H535.848C553.956 218.936 564.108 226.484 564.108 249.68C564.108 269.444 559.444 277.954 546.823 280.287V280.974ZM541.747 253.935C541.747 239.935 538.317 237.465 531.184 237.602C529.538 237.465 526.108 237.602 523.09 237.739C523.09 248.719 523.09 259.837 523.227 270.268C525.422 270.268 528.715 270.268 532.418 270.405C538.866 270.405 541.747 265.601 541.747 253.935Z" fill="white"/>
  </svg>
  