<svg id="Layer_1" data-name="Layer 1" xmlns="http://www.w3.org/2000/svg" viewBox="0 0 634.21 238.95"><defs></defs><path class="cls-1" d="M25.16,85.49c0,10.2,2.4,13.5,10.2,13.5,7.5,0,9.9-3.15,9.9-9.75,0-8.4-2.85-14.4-14.85-18.75-21.6-7.95-27.6-18.6-27.6-37.2,0-19.5,10.5-29.7,33-29.7,24.75,0,32.85,9.3,32.85,29.25,0,3.15-.15,6.45-.3,10.2-3-.15-7.65-.3-11.85-.3-3.75,0-7.2,0-9.45.15.15-2.85.15-5.4.15-8.1,0-7.35-2.4-10.95-10.2-10.95-6.9,0-9.45,3.3-9.45,9.3-.15,7.35,1.8,13,14.85,18.15,18.75,7.35,27,17.55,27,37.2,0,20.1-9.3,30.9-32.85,30.9-25.65,0-34.05-10.5-34.05-29.7,0-4,.15-7.2.45-10.65,3.15.3,7.65.6,12.45.6a93.46,93.46,0,0,0,9.75-.3Z"/><path class="cls-1" d="M109.56,119.39c-25,0-37.8-16.5-37.8-60.15,0-43,14.1-55.65,37.8-55.65s38.24,12.6,38.24,55.65C147.8,102.89,134.61,119.39,109.56,119.39ZM122,59.69c0-26.85-4.35-33.45-12.3-33.45S97.26,32.69,97.26,59.69c0,27.9,4.35,35.55,12.45,35.55S122,87.44,122,59.69Z"/><path class="cls-1" d="M242,5.24c-.3,14.7-.45,31.5-.45,56.1,0,23.85.15,40.2.45,56.4H217.55c.45-17.55.75-29.85.75-48.3,0-9.15.6-20.4,1-30.9l-.6-.15c-1.65,10.35-3.6,20.85-5.1,27.45l-12.6,51.9h-10.5L177.8,65.09c-1.64-6.9-3.59-17.25-5.25-26.85l-.44.15c.3,10.8.9,21,1,31.05,0,18.6.3,30.9.6,48.3h-21.6c.3-16.2.45-32.55.45-56.4,0-24.6-.15-41.4-.3-56.1H184.4c2.25,9.9,6.15,28.2,10.5,45.9,1,5.25,2.1,12.9,3.15,20h.6c1.2-7.2,2.25-14.55,3.3-19.8,4.05-17.7,8.4-36,10.5-46Z"/><path class="cls-1" d="M306.8,5.24c-.15,2.7-.15,7.5-.15,11.25,0,4.05,0,9.45.15,12.3-12.15-.15-24.15-.3-33.75-.3v21.3c11.55,0,22.95,0,32.7-.3,0,4.8-.15,15.9,0,21.3-9.6-.3-21.15-.45-32.7-.45V92.69c9.75,0,22.2-.15,33.75-.3-.15,3.15-.15,8.55-.15,13,0,3.9,0,9.15.15,12.3H247.86c.45-15,.45-32.25.45-56.25s0-42.15-.45-56.25Z"/><path class="cls-1" d="M369.5,5.24v26.4c-5.55-.15-11.1-.3-16.2-.3,0,35.25.15,78.15.45,86.55-3.6-.31-9.45-.31-13.5-.31s-9.6,0-13.35.31c.45-8.25.6-51.15.6-86.55-5.25,0-10.8.15-16.5.3.15-3.6.15-9.15.15-13.5,0-4.65,0-9.6-.15-12.9Z"/><path class="cls-1" d="M445.1,5.24c-.3,15.3-.45,32.4-.45,56.25s.15,40.05.45,56.25H419.3c.15-11.7.3-30.3.45-43.8H398.3c0,13.5.15,32,.45,43.8H373c.45-16.2.45-32.4.45-56.25s0-40.95-.45-56.25h25.8c-.3,11.25-.45,30.45-.45,44.25,3.45.15,7.05.15,10.65.15,3.75,0,7.35,0,10.8-.15-.15-13.8-.15-33-.45-44.25Z"/><path class="cls-1" d="M451.1,117.74c.3-15.3.3-32.4.3-56.25s0-41.1-.3-56.25h26.1c-.3,15-.3,32.1-.3,56.1,0,23.85,0,41,.3,56.4Z"/><path class="cls-1" d="M554.9,5.24c-.15,9-.45,32.25-.45,56.1,0,25,0,42,.3,56.4h-26.1C525.5,107.54,518,87,511.1,69.74A276.57,276.57,0,0,1,503.9,40h-.3c.75,12,1.2,22.65,1.35,32.25.15,23.4.3,39.15.45,45.45H483.2c0-14.85.15-32.25.15-56.25s0-41.7-.15-56.25h28.95c2,7.65,10.5,30,17,50.1a193.3,193.3,0,0,1,6,24.75l.15-.15q-1.12-15.3-1.35-28.8c0-15.6-.45-35.55-.9-45.9Z"/><path class="cls-1" d="M595.4,75c.15-1.95.15-6.6.15-9,0-3.75,0-7.2-.15-9.6,5.7.15,11.55.15,15.9.15,5.4,0,12.6,0,19.8-.3,1.79,44.7-3.45,63-34.35,63-26.55,0-37.5-16.95-37.5-59.1-.15-41.85,11.4-56.4,38.1-56.4,25.8,0,34.35,12.9,34.35,34.35a70.78,70.78,0,0,1-.31,7.95c-3.14-.15-7.64-.3-12.29-.3-4.8,0-9.15.15-12.3.3.15-2.25.15-4.35.15-6,0-11.4-3.45-15.15-9.75-15.15-8.7,0-12.75,6.3-12.75,35.4s3.45,37.05,13.2,37.05c7.65,0,10.2-5.1,10.35-22.5Z"/><path class="cls-1" d="M241.85,123.44c-.3,14.69-.45,31.49-.45,56.09,0,23.85.15,40.2.45,56.4H217.4c.45-17.55.75-29.85.75-48.3,0-9.15.6-20.4,1-30.9l-.6-.15C217,166.93,215,177.43,213.5,184l-12.6,51.9H190.41l-12.75-52.65c-1.65-6.9-3.6-17.25-5.25-26.85l-.45.15c.3,10.8.9,21,1,31,0,18.6.3,30.9.6,48.3H152c.3-16.2.45-32.55.45-56.4,0-24.6-.15-41.4-.3-56.09h32.1c2.25,9.89,6.15,28.19,10.5,45.89,1,5.25,2.09,12.9,3.14,19.95h.61c1.2-7.2,2.25-14.55,3.29-19.8,4-17.7,8.4-36,10.5-46Z"/><path class="cls-1" d="M284,237.58c-25.05,0-37.8-16.5-37.8-60.15,0-43.05,14.1-55.65,37.8-55.65s38.25,12.6,38.25,55.65C322.25,221.08,309.05,237.58,284,237.58Zm12.45-59.7c0-26.85-4.35-33.45-12.3-33.45s-12.45,6.45-12.45,33.45c0,27.9,4.35,35.55,12.45,35.55S296.45,205.63,296.45,177.88Z"/><path class="cls-1" d="M377,191.23c11,1.65,15,6,17.85,20.7,1.8,8.4,3.45,18.6,4.65,24h-23.1c-3.6,0-4.2-1.65-5.85-9.3-3-25.2-4.35-28.65-10.5-28.65-3.15,0-4.95,0-8.7.15.15,15.3.45,28.5,1.2,37.8H326.62c.15-16.2.45-32.25.45-56.25,0-23.85-.15-40.05-.45-56.24H365c19.8,0,30.9,8.24,30.9,33.59,0,21.6-5.1,30.9-18.9,33.45Zm-5.55-29.55c0-15.3-3.75-18-11.55-17.85-1.8-.15-5.55,0-8.85.15,0,12,0,24.15.15,35.55,2.4,0,6,0,10,.15C368.32,179.68,371.47,174.43,371.47,161.68Z"/><path class="cls-1" d="M461.47,123.44c-.15,2.69-.15,7.49-.15,11.24,0,4,0,9.45.15,12.3-12.15-.15-24.15-.3-33.75-.3V168c11.55,0,22.95,0,32.7-.3,0,4.8-.15,15.9,0,21.3-9.6-.3-21.15-.45-32.7-.45v22.35c9.75,0,22.2-.15,33.75-.3-.15,3.15-.15,8.55-.15,13,0,3.9,0,9.15.15,12.3h-59c.45-15,.45-32.25.45-56.25,0-23.85,0-42.15-.45-56.24Z"/></svg>