<svg id="Layer_1" data-name="Layer 1" xmlns="http://www.w3.org/2000/svg" viewBox="0 0 634.21 118.77"><defs></defs><path class="cls-1" d="M199.7,40.58c0-14.25-3.6-17.7-10.2-17.7-7.5,0-11.4,4.35-11.4,33.9,0,30.15,3.9,35.1,11.7,35.1,6.9,0,10.2-5.7,10.2-18.45,0-2.25-.15-4.8-.3-7.5,4.2.15,8.1.15,12.15.15s8.1,0,12.3-.15c0,2.7.15,5.4.15,9,0,28.05-11.55,41.1-34.8,41.1-25.05,0-36.9-14.1-36.9-59.1,0-42.3,11.1-56.4,37.2-56.4,25,0,34.2,12,34.2,36.75,0,4.2-.15,8.1-.3,12.15-4-.15-8.25-.15-12.3-.15s-7.8,0-11.85.15C199.7,45.83,199.7,42.83,199.7,40.58Z"/><path class="cls-1" d="M228.83,114.53c.3-15.3.3-32.4.3-56.25,0-24,0-41.1-.3-56.25h26.1c-.3,15-.3,32.1-.3,56.1s0,40.95.3,56.4Z"/><path class="cls-1" d="M311,114.53c-.3-4.35-1.2-13.2-2.55-24.3h-22.2c-1.35,10.65-2.4,19.5-2.7,24.3h-25.5c5.7-28,17.4-98.55,19.65-112.5h40.8c2.55,14.25,14.25,84.15,20.4,112.5Zm-4.95-43.8c-1.65-12-3.3-24.45-4.95-35.25-1.35-7-2.4-14.55-3.15-20.1h-.9c-.75,5.55-1.95,13.05-3.3,20.25-1.5,10.8-3.3,23.1-4.95,34.95,3.3.15,6.3.15,8.7.15Z"/><path class="cls-1" d="M368.63,2c-.3,8.4-.6,30.9-.6,55.8,0,9.9,0,21.75.15,30.6,6.45,0,15-.15,22.35-.45-.15,4-.15,8.55-.15,12.9,0,4.65,0,9.45.15,13.65H342.08c0-7.35.45-32.25.45-56.25,0-26.4,0-45.6-.45-56.25Z"/><path class="cls-1" d="M25.16,82.28c0,10.2,2.4,13.5,10.2,13.5,7.5,0,9.9-3.15,9.9-9.75,0-8.4-2.85-14.4-14.85-18.75-21.6-8-27.6-18.6-27.6-37.2,0-19.5,10.5-29.7,33-29.7,24.75,0,32.85,9.3,32.85,29.25,0,3.15-.15,6.45-.3,10.2-3-.15-7.65-.3-11.85-.3-3.75,0-7.2,0-9.45.15.15-2.85.15-5.4.15-8.1,0-7.35-2.4-10.95-10.2-10.95-6.9,0-9.45,3.3-9.45,9.3-.15,7.35,1.8,13,14.85,18.15,18.75,7.35,27,17.55,27,37.2,0,20.1-9.3,30.9-32.85,30.9-25.65,0-34.05-10.5-34.05-29.7,0-4,.15-7.2.45-10.65,3.15.3,7.65.6,12.45.6a93.46,93.46,0,0,0,9.75-.3Z"/><path class="cls-1" d="M109.56,116.18c-25,0-37.8-16.5-37.8-60.15,0-43,14.1-55.65,37.8-55.65S147.8,13,147.8,56C147.8,99.68,134.61,116.18,109.56,116.18ZM122,56.48C122,29.63,117.66,23,109.71,23S97.26,29.48,97.26,56.48c0,27.9,4.35,35.55,12.45,35.55S122,84.23,122,56.48Z"/></svg>