<svg id="Layer_1" data-name="Layer 1" xmlns="http://www.w3.org/2000/svg" viewBox="0 0 629.19 350.54"><defs></defs><path class="cls-1" d="M22.65,81.9c0,10.2,2.4,13.5,10.2,13.5,7.5,0,9.9-3.15,9.9-9.75,0-8.4-2.85-14.4-14.85-18.75C6.3,59,.3,48.3.3,29.7.3,10.2,10.8,0,33.3,0,58.05,0,66.15,9.3,66.15,29.25c0,3.15-.15,6.45-.3,10.2-3-.15-7.65-.3-11.85-.3-3.75,0-7.2,0-9.45.15.15-2.85.15-5.4.15-8.1,0-7.35-2.4-10.95-10.2-10.95-6.9,0-9.45,3.3-9.45,9.3C24.9,36.9,26.85,42.6,39.9,47.7c18.75,7.35,27,17.55,27,37.2,0,20.1-9.3,30.9-32.85,30.9C8.4,115.8,0,105.3,0,86.1c0-4,.15-7.2.45-10.65,3.15.3,7.65.6,12.45.6a93.46,93.46,0,0,0,9.75-.3Z"/><path class="cls-1" d="M107.05,115.8c-25,0-37.8-16.5-37.8-60.15,0-43,14.1-55.65,37.8-55.65s38.24,12.6,38.24,55.65C145.29,99.3,132.1,115.8,107.05,115.8ZM119.5,56.1c0-26.85-4.35-33.45-12.3-33.45S94.75,29.1,94.75,56.1c0,27.9,4.35,35.55,12.45,35.55S119.5,83.85,119.5,56.1Z"/><path class="cls-1" d="M239.49,1.65c-.3,14.7-.45,31.5-.45,56.1,0,23.85.15,40.2.45,56.4H215c.45-17.55.75-29.85.75-48.3,0-9.15.6-20.4,1.05-30.9l-.6-.15c-1.65,10.35-3.6,20.85-5.1,27.45l-12.6,51.9H188L175.29,61.5c-1.64-6.9-3.59-17.25-5.25-26.85l-.44.15c.3,10.8.9,21,1.05,31.05,0,18.6.3,30.9.6,48.3h-21.6c.3-16.2.45-32.55.45-56.4,0-24.6-.15-41.4-.3-56.1h32.09c2.25,9.9,6.15,28.2,10.5,45.9,1.05,5.25,2.1,12.9,3.15,20h.6c1.2-7.2,2.25-14.55,3.3-19.8,4.05-17.7,8.4-36,10.5-46.05Z"/><path class="cls-1" d="M304.29,1.65c-.15,2.7-.15,7.5-.15,11.25,0,4,0,9.45.15,12.3-12.15-.15-24.15-.3-33.75-.3V46.2c11.55,0,22.95,0,32.7-.3,0,4.8-.15,15.9,0,21.3-9.6-.3-21.15-.45-32.7-.45V89.1c9.75,0,22.2-.15,33.75-.3-.15,3.15-.15,8.55-.15,13,0,3.9,0,9.15.15,12.3H245.35c.45-15,.45-32.25.45-56.25,0-23.85,0-42.15-.45-56.25Z"/><path class="cls-1" d="M367,1.65v26.4c-5.55-.15-11.1-.3-16.2-.3,0,35.25.15,78.15.45,86.55-3.6-.3-9.45-.3-13.5-.3s-9.6,0-13.35.3c.45-8.25.6-51.15.6-86.55-5.25,0-10.8.15-16.5.3.15-3.6.15-9.15.15-13.5,0-4.65,0-9.6-.15-12.9Z"/><path class="cls-1" d="M442.59,1.65c-.3,15.3-.45,32.4-.45,56.25s.15,40.05.45,56.25h-25.8c.15-11.7.3-30.3.45-43.8H395.79c0,13.5.15,32,.45,43.8h-25.8c.45-16.2.45-32.4.45-56.25s0-40.95-.45-56.25h25.8c-.3,11.25-.45,30.45-.45,44.25,3.45.15,7,.15,10.65.15s7.35,0,10.8-.15c-.15-13.8-.15-33-.45-44.25Z"/><path class="cls-1" d="M448.59,114.15c.3-15.3.3-32.4.3-56.25s0-41.1-.3-56.25h26.1c-.3,15-.3,32.1-.3,56.1,0,23.85,0,41,.3,56.4Z"/><path class="cls-1" d="M552.39,1.65c-.15,9-.45,32.25-.45,56.1,0,25,0,42,.3,56.4h-26.1c-3.15-10.2-10.65-30.75-17.55-48a276.57,276.57,0,0,1-7.2-29.7h-.3c.75,12,1.2,22.65,1.35,32.25.15,23.4.3,39.15.45,45.45h-22.2c0-14.85.15-32.25.15-56.25,0-23.85,0-41.7-.15-56.25h28.95c1.95,7.65,10.5,30,17,50.1a193.3,193.3,0,0,1,6,24.75l.15-.15q-1.12-15.3-1.35-28.8c0-15.6-.45-35.55-.9-45.9Z"/><path class="cls-1" d="M592.89,71.4c.15-2,.15-6.6.15-9,0-3.75,0-7.2-.15-9.6,5.7.15,11.55.15,15.9.15,5.4,0,12.6,0,19.79-.3,1.8,44.7-3.44,63-34.34,63-26.55,0-37.5-17-37.5-59.1-.15-41.85,11.4-56.4,38.1-56.4,25.8,0,34.35,12.9,34.35,34.35a70.78,70.78,0,0,1-.31,8c-3.14-.15-7.64-.3-12.29-.3-4.8,0-9.15.15-12.3.3.15-2.25.15-4.35.15-6,0-11.4-3.45-15.15-9.75-15.15-8.7,0-12.75,6.3-12.75,35.4s3.45,37.05,13.2,37.05c7.65,0,10.2-5.1,10.35-22.5Z"/><path class="cls-1" d="M239.34,119.85c-.3,14.69-.45,31.49-.45,56.09,0,23.85.15,40.2.45,56.4H214.89c.45-17.55.75-29.85.75-48.3,0-9.15.6-20.4,1.05-30.9l-.6-.15c-1.65,10.35-3.6,20.85-5.1,27.45l-12.6,51.9H187.9l-12.75-52.65c-1.65-6.9-3.6-17.25-5.25-26.85l-.45.15c.3,10.8.9,21,1.05,31,0,18.6.3,30.9.6,48.3H149.5c.3-16.2.45-32.55.45-56.4,0-24.6-.15-41.4-.3-56.09h32.1c2.25,9.9,6.15,28.19,10.5,45.89,1,5.25,2.09,12.9,3.14,19.95H196c1.2-7.2,2.25-14.55,3.29-19.8,4.05-17.7,8.4-36,10.5-46Z"/><path class="cls-1" d="M281.49,234c-25.05,0-37.8-16.5-37.8-60.15,0-43.05,14.1-55.64,37.8-55.64s38.25,12.59,38.25,55.64C319.74,217.49,306.54,234,281.49,234Zm12.45-59.7c0-26.85-4.35-33.45-12.3-33.45s-12.45,6.45-12.45,33.45c0,27.9,4.35,35.55,12.45,35.55S293.94,202,293.94,174.29Z"/><path class="cls-1" d="M374.51,187.64c10.95,1.65,15,6,17.85,20.7,1.8,8.4,3.45,18.6,4.65,24h-23.1c-3.6,0-4.2-1.65-5.85-9.3-3-25.2-4.35-28.65-10.5-28.65-3.15,0-4.95,0-8.7.15.15,15.3.45,28.5,1.2,37.8H324.11c.15-16.2.45-32.25.45-56.25,0-23.85-.15-40.05-.45-56.24h38.4c19.8,0,30.9,8.24,30.9,33.59,0,21.6-5.1,30.9-18.9,33.45ZM369,158.09c0-15.3-3.75-18-11.55-17.85-1.8-.15-5.55,0-8.85.15,0,12,0,24.15.15,35.55,2.4,0,6,0,10.05.15C365.81,176.09,369,170.84,369,158.09Z"/><path class="cls-1" d="M459,119.85c-.15,2.69-.15,7.49-.15,11.24,0,4,0,9.45.15,12.3-12.15-.15-24.15-.3-33.75-.3v21.3c11.55,0,23,0,32.7-.3,0,4.8-.15,15.9,0,21.3-9.6-.3-21.15-.45-32.7-.45v22.35c9.75,0,22.2-.15,33.75-.3-.15,3.15-.15,8.55-.15,13,0,3.9,0,9.15.15,12.3H400c.45-15,.45-32.25.45-56.25,0-23.85,0-42.14-.45-56.24Z"/><path class="cls-1" d="M128,238c-.3,15.3-.45,32.4-.45,56.25s.15,40,.45,56.25H102.2c.15-11.7.3-30.3.45-43.8H81.2c0,13.5.15,31.95.45,43.8H55.85c.45-16.2.45-32.4.45-56.25s0-41-.45-56.25h25.8c-.3,11.25-.45,30.45-.45,44.25,3.45.15,7,.15,10.65.15,3.75,0,7.35,0,10.8-.15-.15-13.8-.15-33-.45-44.25Z"/><path class="cls-1" d="M205.4,238c-.3,10.2-.45,20.4-.45,35.4,0,10.95.15,28.2.15,42.3,0,23.55-9,36.45-35.55,36.45S134,339.29,134,315.74c0-14.1.15-31.35.15-42.3,0-15-.3-25.2-.45-35.4h26c-.3,19.5-.45,55.35-.45,75.3,0,10.05,3.15,14.4,11,14.4,7.35,0,10.35-4.35,10.35-14.4,0-19.95-.3-55.95-.45-75.3Z"/><path class="cls-1" d="M300.79,238c-.3,14.7-.45,31.5-.45,56.1,0,23.85.15,40.2.45,56.4H276.34c.45-17.55.75-29.85.75-48.3,0-9.15.6-20.4,1.05-30.9l-.6-.15c-1.65,10.35-3.6,20.85-5.1,27.45l-12.59,51.9h-10.5L236.6,297.89C235,291,233,280.64,231.35,271l-.45.15c.3,10.8.9,21,1,31.05,0,18.6.3,30.9.6,48.3H211c.3-16.2.45-32.55.45-56.4,0-24.6-.15-41.4-.3-56.1h32.1c2.25,9.9,6.15,28.2,10.5,45.9,1,5.25,2.1,12.9,3.15,19.95h.6c1.19-7.2,2.24-14.55,3.29-19.8,4.05-17.7,8.4-36,10.5-46Z"/><path class="cls-1" d="M356.89,350.54c-.3-4.35-1.2-13.2-2.55-24.3h-22.2c-1.35,10.65-2.4,19.5-2.7,24.3h-25.5c5.7-28.05,17.4-98.55,19.65-112.5h40.8c2.55,14.25,14.25,84.15,20.4,112.5Zm-4.95-43.8c-1.65-12-3.3-24.45-4.95-35.25-1.35-7.05-2.4-14.55-3.15-20.1h-.9c-.75,5.55-1.95,13.05-3.3,20.25-1.5,10.8-3.3,23.1-4.95,34.95,3.3.15,6.3.15,8.7.15Z"/><path class="cls-1" d="M459.64,238c-.15,9-.45,32.25-.45,56.1,0,25.05,0,42,.3,56.4h-26.1c-3.15-10.2-10.65-30.75-17.55-48a276.57,276.57,0,0,1-7.2-29.7h-.3c.75,12,1.2,22.65,1.35,32.25.15,23.4.3,39.15.45,45.45h-22.2c0-14.85.15-32.25.15-56.25s0-41.7-.15-56.25h28.95c1.95,7.65,10.5,30,16.95,50.1a193.3,193.3,0,0,1,6,24.75l.15-.15q-1.12-15.3-1.35-28.8c0-15.6-.45-35.55-.9-45.9Z"/></svg>