<svg id="Layer_1" data-name="Layer 1" xmlns="http://www.w3.org/2000/svg" viewBox="0 0 634.21 118.77"><defs></defs><path class="cls-1" d="M396.82,2.68c-.15,9-.45,32.25-.45,56.1,0,25,0,42,.3,56.4h-26.1c-3.15-10.2-9.15-30.75-16.05-48a276.57,276.57,0,0,1-7.2-29.7H347c.75,12,1.2,22.65,1.35,32.25.15,23.4.3,39.15.45,45.45h-22.2c0-14.85.15-32.25.15-56.25,0-23.85,0-41.7-.15-56.25h28.95c1.95,7.65,9,30,15.45,50.1a193.3,193.3,0,0,1,6,24.75l.15-.15q-1.12-15.3-1.35-28.8c0-15.6-.45-35.55-.9-45.9Z"/><path class="cls-1" d="M461.47,2.68c-.15,2.7-.15,7.5-.15,11.25,0,4.05,0,9.45.15,12.3-12.15-.15-24.15-.3-33.75-.3v21.3c11.55,0,22.95,0,32.7-.3,0,4.8-.15,15.9,0,21.3-9.6-.3-21.15-.45-32.7-.45V90.13c9.75,0,22.2-.15,33.75-.3-.15,3.15-.15,8.55-.15,13,0,3.9,0,9.15.15,12.3h-59c.45-15,.45-32.25.45-56.25,0-23.85,0-42.15-.45-56.25Z"/><path class="cls-1" d="M517.57,115.18c-.3-4.35-1.21-13.2-2.55-24.3h-22.2c-1.35,10.65-2.4,19.5-2.7,24.3h-25.5c5.7-28.05,17.4-98.55,19.65-112.5h40.8c2.54,14.25,14.24,84.15,20.39,112.5Zm-5-43.8c-1.65-12-3.3-24.45-4.95-35.25-1.35-7.05-2.4-14.55-3.15-20.1h-.9c-.75,5.55-1.95,13-3.3,20.25-1.5,10.8-3.3,23.1-4.95,35,3.3.15,6.3.15,8.7.15Z"/><path class="cls-1" d="M599,70.48c11,1.65,15,6,17.85,20.7,1.8,8.4,3.45,18.6,4.65,24h-23.1c-3.59,0-4.2-1.65-5.84-9.3-3-25.2-4.36-28.65-10.5-28.65-3.15,0-5,0-8.7.15.15,15.3.45,28.5,1.2,37.8h-26c.15-16.2.45-32.25.45-56.25,0-23.85-.15-40-.45-56.25H587c19.79,0,30.89,8.25,30.89,33.6,0,21.6-5.1,30.9-18.9,33.45Zm-5.55-29.55c0-15.3-3.75-18-11.54-17.85-1.81-.15-5.55,0-8.85.15,0,12,0,24.15.15,35.55,2.4,0,6,0,10,.15C590.32,58.93,593.46,53.68,593.46,40.93Z"/></svg>