<svg id="Layer_1" data-name="Layer 1" xmlns="http://www.w3.org/2000/svg" viewBox="0 0 634.21 118.77"><defs></defs><path class="cls-1" d="M55.67,71.78c.15-2,.15-6.6.15-9,0-3.75,0-7.2-.15-9.6,5.7.15,11.55.15,15.9.15,5.4,0,12.6,0,19.8-.3,1.8,44.7-3.45,63-34.35,63-26.54,0-37.49-17-37.49-59.1C19.38,15.08,30.93.53,57.62.53,83.42.53,92,13.43,92,34.88a73.13,73.13,0,0,1-.3,7.95c-3.15-.15-7.65-.3-12.3-.3-4.8,0-9.15.15-12.3.3.15-2.25.15-4.35.15-6,0-11.4-3.45-15.15-9.75-15.15-8.7,0-12.75,6.3-12.75,35.4s3.45,37.05,13.2,37.05c7.65,0,10.2-5.1,10.35-22.5Z"/><path class="cls-1" d="M146.42,69.83c11,1.65,15,6,17.85,20.7,1.8,8.4,3.45,18.6,4.65,24h-23.1c-3.6,0-4.2-1.65-5.85-9.3-3-25.2-4.35-28.65-10.5-28.65-3.15,0-5,0-8.7.15.15,15.3.45,28.5,1.2,37.8H96c.15-16.2.45-32.25.45-56.25S96.32,18.23,96,2h38.4c19.8,0,30.9,8.25,30.9,33.6,0,21.6-5.1,30.9-18.9,33.45Zm-5.55-29.55c0-15.3-3.75-18-11.55-17.85-1.8-.15-5.55,0-8.85.15,0,12,0,24.15.15,35.55,2.4,0,6,0,10,.15C137.72,58.28,140.87,53,140.87,40.28Z"/><path class="cls-1" d="M206.21,116.18c-25,0-37.79-16.5-37.79-60.15,0-43,14.1-55.65,37.79-55.65S244.46,13,244.46,56C244.46,99.68,231.26,116.18,206.21,116.18Zm12.45-59.7c0-26.85-4.35-33.45-12.3-33.45s-12.44,6.45-12.44,33.45c0,27.9,4.34,35.55,12.44,35.55S218.66,84.23,218.66,56.48Z"/><path class="cls-1" d="M320.57,2c-.3,10.2-.45,20.4-.45,35.4,0,11,.15,28.2.15,42.3,0,23.55-9,36.45-35.55,36.45s-35.55-12.9-35.55-36.45c0-14.1.15-31.35.15-42.3,0-15-.3-25.2-.45-35.4h25.95c-.3,19.5-.45,55.35-.45,75.3,0,10,3.15,14.4,10.95,14.4,7.35,0,10.35-4.35,10.35-14.4,0-19.95-.3-55.95-.45-75.3Z"/><path class="cls-1" d="M398,2c-.15,9-.45,32.25-.45,56.1,0,25.05,0,42,.3,56.4H371.72c-3.15-10.2-10.65-30.75-17.55-48a276.57,276.57,0,0,1-7.2-29.7h-.3c.75,12,1.2,22.65,1.35,32.25.15,23.4.3,39.15.45,45.45h-22.2c0-14.85.15-32.25.15-56.25s0-41.7-.15-56.25h29c1.95,7.65,10.5,30,16.95,50.1a193.3,193.3,0,0,1,6,24.75l.15-.15q-1.12-15.3-1.35-28.8c0-15.6-.45-35.55-.9-45.9Z"/><path class="cls-1" d="M437.41,2c26.25,0,38.25,9,38.25,53.7,0,47-10.65,58.8-38.7,58.8h-33.3c.31-15.6.45-32.25.45-56.1s-.14-42-.45-56.4Zm13.2,55.05c0-30-4.35-33.15-14.55-33.15-2.4,0-4.65,0-6.9.15-.3,10.2-.3,22.8-.3,34.5,0,14.7,0,24.75.15,32.4,2.25.15,4.35.15,6.75.15C446.41,91.13,450.61,87.53,450.61,57.08Z"/><path class="cls-1" d="M539,2c-.15,2.7-.15,7.5-.15,11.25,0,4,0,9.45.15,12.3-12.15-.15-24.15-.3-33.74-.3v21.3c11.54,0,22.94,0,32.69-.3,0,4.8-.15,15.9,0,21.3-9.6-.3-21.15-.45-32.69-.45V89.48c9.74,0,22.19-.15,33.74-.3-.15,3.15-.15,8.55-.15,13,0,3.9,0,9.15.15,12.3H480c.45-15,.45-32.25.45-56.25s0-42.15-.45-56.25Z"/><path class="cls-1" d="M578.43,2c26.25,0,38.25,9,38.25,53.7,0,47-10.65,58.8-38.7,58.8h-33.3c.3-15.6.45-32.25.45-56.1s-.15-42-.45-56.4Zm13.2,55.05c0-30-4.35-33.15-14.55-33.15-2.4,0-4.65,0-6.9.15-.3,10.2-.3,22.8-.3,34.5,0,14.7,0,24.75.15,32.4,2.25.15,4.35.15,6.75.15C587.43,91.13,591.63,87.53,591.63,57.08Z"/></svg>