<svg id="Layer_1" data-name="Layer 1" xmlns="http://www.w3.org/2000/svg" viewBox="0 0 634.21 118.77"><defs></defs><path class="cls-1" d="M129.82,2c-.3,15.3-.45,32.4-.45,56.25s.15,40.05.45,56.25H104c.15-11.7.3-30.3.45-43.8H83c0,13.5.15,32,.45,43.8H57.68c.45-16.2.45-32.4.45-56.25s0-40.95-.45-56.25h25.8C83.18,13.28,83,32.48,83,46.28c3.45.15,7,.15,10.65.15s7.35,0,10.8-.15c-.15-13.8-.15-33-.45-44.25Z"/><path class="cls-1" d="M207.22,2c-.3,10.2-.45,20.4-.45,35.4,0,11,.15,28.2.15,42.3,0,23.55-9,36.45-35.55,36.45s-35.54-12.9-35.54-36.45c0-14.1.15-31.35.15-42.3,0-15-.31-25.2-.46-35.4h25.95c-.3,19.5-.45,55.35-.45,75.3,0,10,3.15,14.4,10.95,14.4,7.35,0,10.35-4.35,10.35-14.4,0-19.95-.3-55.95-.45-75.3Z"/><path class="cls-1" d="M302.62,2c-.3,14.7-.45,31.5-.45,56.1,0,23.85.15,40.2.45,56.4H278.17c.45-17.55.75-29.85.75-48.3,0-9.15.6-20.4,1.05-30.9l-.6-.15c-1.65,10.35-3.6,20.85-5.1,27.45l-12.6,51.9h-10.5L238.42,61.88c-1.65-6.9-3.6-17.25-5.25-26.85l-.45.15c.3,10.8.9,21,1.05,31.05,0,18.6.3,30.9.6,48.3h-21.6c.3-16.2.45-32.55.45-56.4,0-24.6-.15-41.4-.3-56.1H245c2.25,9.9,6.15,28.2,10.5,45.9,1,5.25,2.1,12.9,3.15,19.95h.6c1.2-7.2,2.25-14.55,3.3-19.8,4.05-17.7,8.4-36,10.5-46Z"/><path class="cls-1" d="M358.72,114.53c-.3-4.35-1.2-13.2-2.55-24.3H334c-1.35,10.65-2.4,19.5-2.7,24.3h-25.5c5.7-28,17.4-98.55,19.65-112.5h40.8c2.55,14.25,14.25,84.15,20.4,112.5Zm-5-43.8c-1.65-12-3.3-24.45-4.95-35.25-1.35-7-2.4-14.55-3.15-20.1h-.9c-.75,5.55-1.95,13.05-3.3,20.25-1.5,10.8-3.3,23.1-5,34.95,3.3.15,6.3.15,8.7.15Z"/><path class="cls-1" d="M461.47,2c-.15,9-.45,32.25-.45,56.1,0,25.05,0,42,.3,56.4h-26.1c-3.15-10.2-10.65-30.75-17.55-48a276.57,276.57,0,0,1-7.2-29.7h-.3c.75,12,1.2,22.65,1.35,32.25.15,23.4.3,39.15.45,45.45h-22.2c0-14.85.15-32.25.15-56.25s0-41.7-.15-56.25h29c1.95,7.65,10.5,30,16.95,50.1a193.3,193.3,0,0,1,6,24.75l.15-.15q-1.12-15.3-1.35-28.8c0-15.6-.45-35.55-.9-45.9Z"/></svg>