<svg id="Layer_1" data-name="Layer 1" xmlns="http://www.w3.org/2000/svg" viewBox="0 0 634.21 118.77"><defs></defs><path class="cls-1" d="M376.64,70.48c10.95,1.65,15,6,17.85,20.7,1.8,8.4,3.45,18.6,4.65,24H376c-3.6,0-4.2-1.65-5.85-9.3-3-25.2-4.35-28.65-10.5-28.65-3.15,0-4.95,0-8.7.15.15,15.3.45,28.5,1.2,37.8H326.24c.15-16.2.45-32.25.45-56.25,0-23.85-.15-40-.45-56.25h38.4c19.8,0,30.9,8.25,30.9,33.6,0,21.6-5.1,30.9-18.9,33.45Zm-5.55-29.55c0-15.3-3.75-18-11.55-17.85-1.8-.15-5.55,0-8.85.15,0,12,0,24.15.15,35.55,2.4,0,6,0,10.05.15C367.94,58.93,371.09,53.68,371.09,40.93Z"/><path class="cls-1" d="M517.19,115.18c-.3-4.35-1.2-13.2-2.55-24.3h-22.2c-1.35,10.65-2.4,19.5-2.7,24.3h-25.5c5.7-28.05,17.4-98.55,19.65-112.5h40.8c2.55,14.25,14.25,84.15,20.4,112.5Zm-5-43.8c-1.65-12-3.3-24.45-4.95-35.25-1.35-7.05-2.4-14.55-3.15-20.1h-.9c-.75,5.55-1.95,13-3.3,20.25-1.5,10.8-3.3,23.1-4.95,35,3.3.15,6.3.15,8.7.15Z"/><path class="cls-1" d="M574.79,2.68c-.3,8.4-.6,30.9-.6,55.8,0,9.9,0,21.75.15,30.6,6.45,0,15-.15,22.35-.45-.15,4.05-.15,8.55-.15,12.9,0,4.65,0,9.45.15,13.65H548.24c0-7.35.45-32.25.45-56.25,0-26.4,0-45.6-.45-56.25Z"/><path class="cls-1" d="M461.09,2.68c-.15,2.7-.15,7.5-.15,11.25,0,4.05,0,9.45.15,12.3-12.15-.15-24.15-.3-33.75-.3v21.3c11.55,0,23,0,32.7-.3,0,4.8-.15,15.9,0,21.3-9.6-.3-21.15-.45-32.7-.45V90.13c9.75,0,22.2-.15,33.75-.3-.15,3.15-.15,8.55-.15,13,0,3.9,0,9.15.15,12.3H402.14c.45-15,.45-32.25.45-56.25,0-23.85,0-42.15-.45-56.25Z"/></svg>