<svg id="Layer_1" data-name="Layer 1" xmlns="http://www.w3.org/2000/svg" viewBox="0 0 634.21 118.77"><defs></defs><path class="cls-1" d="M62.1,2.18c21.59,0,32.09,9.15,32.09,42.15,0,32.55-9.45,43.2-33.74,43.2-3.15,0-6-.15-9.45-.3.15,10.65.45,20,.9,27.45H26c.3-16.2.3-32.25.3-56.25,0-23.85,0-40.8-.3-56.25Zm8.24,42.75c0-17.85-3.9-21.6-13-21.6-1.35,0-4.2.15-6.75.15,0,15,0,29.4.15,42.6,1.5.15,3.45.15,5.85.15C66.9,66.23,70.34,62.48,70.34,44.93Z"/><path class="cls-1" d="M149,70c11,1.65,15,6,17.85,20.7,1.8,8.4,3.45,18.6,4.65,24h-23.1c-3.6,0-4.2-1.65-5.85-9.3-3-25.2-4.35-28.65-10.5-28.65-3.15,0-5,0-8.7.15.15,15.3.45,28.5,1.2,37.8H98.55c.15-16.2.45-32.25.45-56.25,0-23.85-.15-40-.45-56.25H137c19.8,0,30.9,8.25,30.9,33.6,0,21.6-5.1,30.9-18.9,33.45ZM143.4,40.43c0-15.3-3.75-18-11.55-17.85-1.8-.15-5.55,0-8.85.15,0,12,0,24.15.15,35.55,2.4,0,6,0,10,.15C140.25,58.43,143.4,53.18,143.4,40.43Z"/><path class="cls-1" d="M227.7,114.68c-.3-4.35-1.2-13.2-2.55-24.3H203c-1.35,10.65-2.4,19.5-2.7,24.3h-25.5c5.7-28.05,17.4-98.55,19.65-112.5h40.8c2.55,14.25,14.25,84.15,20.4,112.5Zm-4.95-43.8c-1.65-12-3.3-24.45-4.95-35.25-1.35-7.05-2.4-14.55-3.15-20.1h-.9c-.75,5.55-1.95,13.05-3.3,20.25-1.5,10.8-3.3,23.1-4.95,35,3.3.15,6.3.15,8.7.15Z"/><path class="cls-1" d="M384.74,2.18v26.4c-5.55-.15-11.1-.3-16.2-.3,0,35.25.16,78.15.46,86.55-3.61-.3-9.45-.3-13.5-.3s-9.6,0-13.35.3c.45-8.25.6-51.15.6-86.55-5.25,0-10.8.15-16.5.3.15-3.6.15-9.15.15-13.5,0-4.65,0-9.6-.15-12.9Z"/><path class="cls-1" d="M388.19,114.68c.31-15.3.31-32.4.31-56.25s0-41.1-.31-56.25h26.1c-.3,15-.3,32.1-.3,56.1,0,23.85,0,41,.3,56.4Z"/><path class="cls-1" d="M465.91,40.73c0-14.25-3.6-17.7-10.2-17.7-7.5,0-11.4,4.35-11.4,33.9,0,30.15,3.9,35.1,11.7,35.1,6.9,0,10.2-5.7,10.2-18.45,0-2.25-.15-4.8-.3-7.5,4.2.15,8.1.15,12.15.15s8.1,0,12.3-.15c0,2.7.15,5.4.15,9,0,28.05-11.55,41.1-34.8,41.1-25,0-36.9-14.1-36.9-59.1,0-42.3,11.1-56.4,37.2-56.4,25.05,0,34.2,12,34.2,36.75,0,4.2-.15,8.1-.3,12.15-4.05-.15-8.25-.15-12.3-.15s-7.8,0-11.85.15C465.91,46,465.91,43,465.91,40.73Z"/><path class="cls-1" d="M541.69,114.68c-.3-4.35-1.2-13.2-2.55-24.3h-22.2c-1.35,10.65-2.4,19.5-2.7,24.3h-25.5c5.7-28.05,17.4-98.55,19.65-112.5h40.8c2.55,14.25,14.25,84.15,20.4,112.5Zm-5-43.8c-1.65-12-3.3-24.45-5-35.25-1.35-7.05-2.4-14.55-3.15-20.1h-.9c-.75,5.55-2,13.05-3.3,20.25-1.5,10.8-3.3,23.1-5,35,3.3.15,6.3.15,8.7.15Z"/><path class="cls-1" d="M599.29,2.18c-.3,8.4-.6,30.9-.6,55.8,0,9.9,0,21.75.15,30.6,6.45,0,15-.15,22.35-.45C621,92.18,621,96.68,621,101c0,4.65,0,9.45.15,13.65H572.74c0-7.35.45-32.25.45-56.25,0-26.4,0-45.6-.45-56.25Z"/><path class="cls-1" d="M299.25,40.73c0-14.25-3.6-17.7-10.2-17.7-7.5,0-11.4,4.35-11.4,33.9,0,30.15,3.9,35.1,11.7,35.1,6.9,0,10.2-5.7,10.2-18.45,0-2.25-.15-4.8-.3-7.5,4.2.15,8.1.15,12.15.15s8.1,0,12.3-.15c0,2.7.15,5.4.15,9,0,28.05-11.55,41.1-34.8,41.1-25.05,0-36.9-14.1-36.9-59.1,0-42.3,11.1-56.4,37.2-56.4,25,0,34.2,12,34.2,36.75,0,4.2-.15,8.1-.3,12.15-4.05-.15-8.25-.15-12.3-.15s-7.8,0-11.85.15C299.25,46,299.25,43,299.25,40.73Z"/></svg>