<?xml version="1.0" encoding="utf-8"?>
<!-- Generator: Adobe Illustrator 16.0.0, SVG Export Plug-In . SVG Version: 6.00 Build 0)  -->
<!DOCTYPE svg PUBLIC "-//W3C//DTD SVG 1.1//EN" "http://www.w3.org/Graphics/SVG/1.1/DTD/svg11.dtd">
<svg version="1.1" id="Layer_1" xmlns="http://www.w3.org/2000/svg" xmlns:xlink="http://www.w3.org/1999/xlink" x="0px" y="0px"
	 width="85.97px" height="48px" viewBox="0.067 62.639 85.97 48" enable-background="new 0.067 62.639 85.97 48"
	 xml:space="preserve">
<path d="M3.161,73.853c0,1.397,0.329,1.848,1.397,1.848c1.027,0,1.356-0.432,1.356-1.334c0-1.151-0.392-1.973-2.034-2.568
	c-2.958-1.088-3.779-2.546-3.779-5.093c0-2.67,1.437-4.067,4.52-4.067c3.389,0,4.497,1.274,4.497,4.005
	c0,0.431-0.019,0.883-0.041,1.397C8.666,68.021,8.031,68,7.456,68c-0.514,0-0.986,0-1.294,0.021c0.021-0.391,0.021-0.74,0.021-1.109
	c0-1.007-0.329-1.499-1.396-1.499c-0.945,0-1.294,0.451-1.294,1.272c-0.021,1.007,0.247,1.788,2.033,2.484
	c2.568,1.007,3.698,2.404,3.698,5.094c0,2.752-1.274,4.231-4.498,4.231c-3.512,0-4.657-1.438-4.657-4.066
	c0-0.555,0.021-0.986,0.062-1.459c0.432,0.041,1.048,0.082,1.704,0.082c0.446,0.01,0.891-0.004,1.335-0.041L3.161,73.853z"/>
<path d="M14.575,78.495c-3.424,0-5.176-2.26-5.176-8.236c0-5.89,1.932-7.62,5.176-7.62c3.245,0,5.238,1.726,5.238,7.62
	C19.813,76.235,18.005,78.495,14.575,78.495 M16.281,70.32c0-3.676-0.596-4.581-1.685-4.581s-1.705,0.884-1.705,4.581
	c0,3.82,0.597,4.868,1.705,4.868C15.704,75.188,16.281,74.12,16.281,70.32"/>
<path d="M32.675,62.865c-0.041,2.014-0.062,4.313-0.062,7.682c0,3.265,0.021,5.505,0.062,7.723h-3.348
	c0.062-2.404,0.103-4.087,0.103-6.613c0-1.253,0.082-2.794,0.144-4.231l-0.083-0.021c-0.226,1.417-0.493,2.855-0.698,3.759
	l-1.725,7.106H25.63L23.89,71.06c-0.228-0.945-0.493-2.363-0.719-3.677l-0.062,0.021c0.041,1.478,0.123,2.877,0.144,4.247
	c0,2.546,0.042,4.231,0.083,6.613h-2.961c0.041-2.217,0.06-4.457,0.06-7.723c0-3.368-0.019-5.668-0.041-7.681h4.396
	c0.308,1.356,0.842,3.861,1.438,6.284c0.144,0.719,0.288,1.767,0.431,2.731h0.083c0.164-0.985,0.308-1.992,0.452-2.711
	c0.555-2.423,1.149-4.931,1.437-6.301L32.675,62.865z"/>
<path d="M41.548,62.865c-0.021,0.37-0.021,1.027-0.021,1.541c0,0.548,0,1.293,0.021,1.683c-1.664-0.021-3.307-0.041-4.622-0.041
	v2.917c1.582,0,3.142,0,4.478-0.042c0,0.658-0.021,2.178,0,2.917c-1.315-0.041-2.896-0.061-4.478-0.061v3.06
	c1.335,0,3.04-0.021,4.622-0.041c-0.021,0.432-0.021,1.17-0.021,1.781c0,0.534,0,1.253,0.021,1.685h-8.07
	c0.062-2.054,0.062-4.416,0.062-7.702c0-3.266,0-5.771-0.062-7.702L41.548,62.865z"/>
<path d="M50.133,62.865v3.615c-0.761-0.021-1.519-0.041-2.218-0.041c0,4.827,0.021,10.7,0.062,11.851
	c-0.493-0.041-1.293-0.041-1.848-0.041s-1.315,0-1.829,0.041c0.062-1.13,0.082-7.004,0.082-11.851c-0.719,0-1.478,0.021-2.259,0.041
	c0.021-0.493,0.021-1.253,0.021-1.848c0-0.637,0-1.315-0.021-1.767H50.133z"/>
<path d="M60.484,62.865c-0.041,2.096-0.061,4.437-0.061,7.702s0.02,5.479,0.061,7.702h-3.533c0.022-1.603,0.041-4.149,0.062-5.999
	h-2.937c0,1.85,0.022,4.375,0.062,5.999H50.6c0.062-2.218,0.062-4.437,0.062-7.702s0-5.606-0.062-7.702h3.533
	c-0.04,1.541-0.062,4.169-0.062,6.058c0.472,0.021,0.965,0.021,1.458,0.021c0.514,0,1.005,0,1.478-0.021
	c-0.021-1.889-0.021-4.52-0.062-6.058H60.484z"/>
<path d="M61.307,78.269c0.041-2.096,0.041-4.437,0.041-7.702c0-3.288,0-5.627-0.041-7.702h3.573
	c-0.041,2.055-0.041,4.396-0.041,7.682c0,3.265,0,5.606,0.041,7.723H61.307z"/>
<path d="M75.52,62.865c-0.021,1.233-0.062,4.416-0.062,7.682c0,3.424,0,5.753,0.042,7.723h-3.574
	c-0.432-1.397-1.459-4.211-2.404-6.575c-0.401-1.335-0.728-2.692-0.978-4.064h-0.042c0.104,1.644,0.164,3.101,0.185,4.415
	c0.021,3.205,0.041,5.361,0.063,6.224h-3.041c0-2.034,0.021-4.416,0.021-7.702c0-3.266,0-5.709-0.021-7.702h3.964
	c0.267,1.048,1.438,4.109,2.322,6.86c0.347,1.11,0.622,2.242,0.822,3.389l0.021-0.021c-0.102-1.396-0.164-2.71-0.185-3.944
	c0-2.135-0.062-4.867-0.124-6.284H75.52z"/>
<path d="M81.064,72.415c0.021-0.266,0.021-0.903,0.021-1.233c0-0.514,0-0.986-0.021-1.315c0.78,0.021,1.582,0.021,2.178,0.021
	c0.738,0,1.725,0,2.711-0.041c0.245,6.12-0.473,8.629-4.704,8.629c-3.635,0-5.135-2.322-5.135-8.092
	c-0.021-5.729,1.562-7.723,5.217-7.723c3.533,0,4.704,1.767,4.704,4.704c0.006,0.366-0.007,0.731-0.041,1.096
	c-0.432-0.022-1.048-0.041-1.685-0.041c-0.658,0-1.253,0.019-1.683,0.041c0.021-0.308,0.021-0.596,0.021-0.822
	c0-1.562-0.473-2.075-1.336-2.075c-1.191,0-1.745,0.863-1.745,4.848s0.471,5.068,1.807,5.068c1.048,0,1.397-0.698,1.417-3.081
	L81.064,72.415z"/>
<path d="M32.656,79.05c-0.041,2.012-0.062,4.312-0.062,7.68c0,3.265,0.021,5.505,0.062,7.723h-3.349
	c0.062-2.403,0.103-4.087,0.103-6.613c0-1.253,0.082-2.793,0.144-4.231l-0.082-0.021c-0.226,1.418-0.493,2.855-0.698,3.759
	l-1.725,7.106H25.61l-1.745-7.209c-0.226-0.945-0.493-2.362-0.719-3.677l-0.062,0.021c0.041,1.479,0.124,2.876,0.144,4.247
	c0,2.546,0.041,4.231,0.082,6.613h-2.957c0.041-2.218,0.062-4.458,0.062-7.723c0-3.368-0.021-5.668-0.041-7.68h4.394
	c0.308,1.355,0.842,3.86,1.438,6.285c0.137,0.718,0.288,1.766,0.432,2.731h0.082c0.165-0.986,0.309-1.993,0.452-2.711
	c0.555-2.424,1.149-4.931,1.437-6.301L32.656,79.05z"/>
<path d="M38.365,94.678c-3.424,0-5.176-2.258-5.176-8.235c0-5.89,1.931-7.62,5.176-7.62c3.245,0,5.236,1.725,5.236,7.62
	C43.602,92.42,41.795,94.678,38.365,94.678 M40.069,86.504c0-3.676-0.596-4.579-1.683-4.579c-1.088,0-1.706,0.882-1.706,4.579
	c0,3.82,0.596,4.868,1.706,4.868C39.495,91.372,40.069,90.304,40.069,86.504"/>
<path d="M51.059,88.331c1.499,0.226,2.055,0.822,2.444,2.834c0.246,1.15,0.472,2.546,0.635,3.288h-3.162
	c-0.493,0-0.575-0.226-0.801-1.274c-0.411-3.451-0.596-3.922-1.438-3.922c-0.432,0-0.678,0-1.192,0.021
	c0.021,2.095,0.062,3.901,0.165,5.175h-3.547c0.021-2.218,0.062-4.416,0.062-7.702c0-3.266-0.021-5.479-0.062-7.701h5.258
	c2.71,0,4.231,1.128,4.231,4.6c0,2.957-0.698,4.231-2.587,4.58L51.059,88.331z M50.298,84.285c0-2.094-0.514-2.465-1.582-2.443
	c-0.247-0.021-0.76,0-1.211,0.021c0,1.644,0,3.307,0.019,4.867c0.329,0,0.822,0,1.377,0.021c0.958,0,1.397-0.719,1.397-2.466"/>
<path d="M62.621,79.05c-0.019,0.368-0.019,1.026-0.019,1.54c0,0.548,0,1.294,0.019,1.685c-1.663-0.022-3.307-0.041-4.62-0.041v2.916
	c1.581,0,3.142,0,4.478-0.041c0,0.658-0.022,2.177,0,2.916c-1.315-0.041-2.897-0.062-4.478-0.062v3.06
	c1.334,0,3.04-0.021,4.62-0.041c-0.019,0.432-0.019,1.171-0.019,1.781c0,0.536,0,1.253,0.019,1.685H54.55
	c0.062-2.055,0.062-4.417,0.062-7.703c0-3.265,0-5.771-0.062-7.701L62.621,79.05z"/>
<path d="M53.769,95.233c-0.021,1.232-0.062,4.416-0.062,7.681c0,3.425,0,5.753,0.041,7.722h-3.573
	c-0.432-1.396-1.253-4.209-2.192-6.575c-0.404-1.336-0.732-2.694-0.985-4.066h-0.041c0.101,1.644,0.164,3.101,0.184,4.416
	c0.022,3.204,0.042,5.361,0.063,6.223h-3.042c0-2.033,0.021-4.415,0.021-7.701s0-5.71-0.021-7.702h3.958
	c0.274,1.048,1.233,4.109,2.117,6.86c0.348,1.11,0.623,2.242,0.822,3.389l0.021-0.021c-0.103-1.397-0.164-2.712-0.185-3.944
	c0-2.135-0.062-4.868-0.123-6.284L53.769,95.233z"/>
<path d="M62.621,95.233c-0.019,0.37-0.019,1.027-0.019,1.539c0,0.555,0,1.295,0.019,1.685c-1.663-0.021-3.307-0.041-4.62-0.041
	v2.916c1.581,0,3.142,0,4.478-0.041c0,0.658-0.022,2.177,0,2.917c-1.315-0.042-2.897-0.062-4.478-0.062v3.06
	c1.334,0,3.04-0.019,4.62-0.041c-0.019,0.432-0.019,1.171-0.019,1.788c0,0.534,0,1.253,0.019,1.684H54.55
	c0.062-2.055,0.062-4.415,0.062-7.701c0-3.286,0-5.772-0.062-7.702L62.621,95.233z"/>
<path d="M70.302,110.636c-0.041-0.595-0.165-1.807-0.35-3.326h-3.04c-0.185,1.457-0.329,2.669-0.37,3.326h-3.492
	c0.781-3.835,2.384-13.494,2.69-15.403h5.587c0.349,1.95,1.95,11.522,2.793,15.403H70.302z M69.625,104.639
	c-0.228-1.644-0.452-3.348-0.678-4.826c-0.185-0.965-0.329-1.993-0.432-2.753h-0.123c-0.103,0.76-0.267,1.78-0.452,2.772
	c-0.205,1.479-0.452,3.165-0.685,4.786c0.452,0.021,0.863,0.021,1.191,0.021H69.625z"/>
<path d="M81.456,104.516c1.499,0.226,2.055,0.822,2.443,2.835c0.247,1.149,0.473,2.546,0.636,3.287h-3.162
	c-0.493,0-0.575-0.225-0.801-1.272c-0.411-3.45-0.596-3.923-1.438-3.923c-0.432,0-0.685,0-1.192,0.021
	c0.021,2.094,0.062,3.902,0.165,5.175h-3.553c0.021-2.218,0.062-4.415,0.062-7.701s-0.021-5.479-0.062-7.702h5.258
	c2.711,0,4.231,1.129,4.231,4.601c0,2.958-0.699,4.229-2.587,4.579V104.516z M80.696,100.47c0-2.094-0.514-2.466-1.582-2.444
	c-0.247-0.021-0.76,0-1.211,0.021c0,1.644,0,3.307,0.019,4.868c0.329,0,0.822,0,1.37,0.021c0.966,0,1.397-0.719,1.397-2.465"/>
</svg>
