<?xml version="1.0" encoding="utf-8"?>
<!-- Generator: Adobe Illustrator 16.0.0, SVG Export Plug-In . SVG Version: 6.00 Build 0)  -->
<!DOCTYPE svg PUBLIC "-//W3C//DTD SVG 1.1//EN" "http://www.w3.org/Graphics/SVG/1.1/DTD/svg11.dtd">
<svg version="1.1" id="Layer_1" xmlns="http://www.w3.org/2000/svg" xmlns:xlink="http://www.w3.org/1999/xlink" x="0px" y="0px"
	 width="114.626px" height="64px" viewBox="0.067 62.639 114.626 64" enable-background="new 0.067 62.639 114.626 64"
	 xml:space="preserve">
<path d="M4.192,77.591c0,1.863,0.438,2.464,1.863,2.464c1.37,0,1.808-0.575,1.808-1.779c0-1.534-0.522-2.63-2.712-3.424
	c-3.943-1.45-5.039-3.396-5.039-6.791c0-3.56,1.916-5.422,6.027-5.422c4.518,0,5.996,1.699,5.996,5.34
	c0,0.575-0.025,1.178-0.055,1.863c-0.548-0.027-1.396-0.055-2.163-0.055c-0.685,0-1.315,0-1.726,0.027
	c0.027-0.521,0.027-0.986,0.027-1.479c0-1.342-0.438-1.998-1.861-1.998c-1.26,0-1.726,0.601-1.726,1.697
	c-0.027,1.342,0.329,2.383,2.71,3.313c3.424,1.342,4.931,3.205,4.931,6.792c0,3.669-1.698,5.642-5.998,5.642
	c-4.683,0-6.209-1.917-6.209-5.422c0-0.74,0.027-1.315,0.082-1.945c0.576,0.055,1.397,0.109,2.272,0.109
	c0.594,0.013,1.188-0.005,1.781-0.055L4.192,77.591z"/>
<path d="M19.412,83.78c-4.566,0-6.902-3.014-6.902-10.982c0-7.853,2.575-10.16,6.902-10.16c4.326,0,6.984,2.301,6.984,10.16
	C26.396,80.767,23.984,83.78,19.412,83.78 M21.685,72.881c0-4.902-0.794-6.107-2.246-6.107c-1.452,0-2.274,1.178-2.274,6.107
	c0,5.094,0.796,6.491,2.274,6.491S21.685,77.947,21.685,72.881"/>
<path d="M43.544,62.94c-0.055,2.685-0.082,5.751-0.082,10.242c0,4.354,0.027,7.34,0.082,10.297h-4.463
	c0.082-3.205,0.137-5.45,0.137-8.817c0-1.671,0.11-3.726,0.192-5.642L39.3,68.993c-0.301,1.888-0.658,3.806-0.932,5.011
	l-2.299,9.475h-1.917l-2.321-9.612c-0.303-1.26-0.658-3.15-0.959-4.902l-0.082,0.028c0.055,1.97,0.164,3.835,0.192,5.662
	c0,3.395,0.055,5.641,0.109,8.817h-3.949c0.055-2.957,0.081-5.943,0.081-10.297c0-4.491-0.025-7.558-0.055-10.242h5.86
	c0.411,1.808,1.124,5.148,1.918,8.379c0.192,0.958,0.383,2.356,0.575,3.642h0.109c0.219-1.313,0.411-2.655,0.603-3.614
	c0.74-3.231,1.532-6.575,1.916-8.401L43.544,62.94z"/>
<path d="M55.375,62.94c-0.027,0.493-0.027,1.37-0.027,2.055c0,0.73,0,1.724,0.027,2.245c-2.219-0.027-4.409-0.055-6.162-0.055v3.888
	c2.109,0,4.189,0,5.97-0.055c0,0.876-0.027,2.904,0,3.888c-1.753-0.055-3.861-0.081-5.97-0.081v4.08
	c1.781,0,4.053-0.027,6.162-0.055c-0.027,0.575-0.027,1.56-0.027,2.374c0,0.712,0,1.671,0.027,2.247H44.615
	c0.082-2.74,0.082-5.888,0.082-10.27c0-4.354,0-7.694-0.082-10.27L55.375,62.94z"/>
<path d="M66.821,62.94v4.82c-1.014-0.027-2.025-0.055-2.957-0.055c0,6.436,0.027,14.267,0.082,15.801
	c-0.657-0.055-1.724-0.055-2.463-0.055s-1.753,0-2.438,0.055c0.082-1.507,0.11-9.338,0.11-15.801c-0.959,0-1.971,0.027-3.012,0.055
	c0.027-0.658,0.027-1.671,0.027-2.464c0-0.849,0-1.753-0.027-2.356H66.821z"/>
<path d="M80.623,62.94c-0.055,2.794-0.08,5.916-0.08,10.27s0.025,7.305,0.08,10.27h-4.71c0.029-2.137,0.055-5.532,0.082-7.998
	h-3.916c0,2.465,0.029,5.833,0.082,7.998h-4.717c0.083-2.957,0.083-5.916,0.083-10.27s0-7.475-0.083-10.27h4.71
	c-0.053,2.055-0.083,5.56-0.083,8.078c0.63,0.027,1.288,0.027,1.945,0.027c0.685,0,1.341,0,1.971-0.027
	c-0.027-2.519-0.027-6.027-0.082-8.078H80.623z"/>
<path d="M81.72,83.479c0.055-2.794,0.055-5.916,0.055-10.27c0-4.383,0-7.502-0.055-10.27h4.765
	c-0.055,2.74-0.055,5.861-0.055,10.242c0,4.354,0,7.475,0.055,10.297H81.72z"/>
<path d="M100.67,62.94c-0.028,1.644-0.083,5.888-0.083,10.242c0,4.566,0,7.67,0.055,10.297h-4.765
	c-0.575-1.863-1.945-5.614-3.205-8.767c-0.535-1.78-0.97-3.589-1.304-5.418h-0.057c0.139,2.191,0.219,4.135,0.247,5.886
	c0.027,4.273,0.055,7.148,0.084,8.299h-4.054c0-2.712,0.027-5.888,0.027-10.27c0-4.354,0-7.612-0.027-10.27h5.285
	c0.356,1.397,1.918,5.479,3.096,9.146c0.463,1.48,0.83,2.99,1.096,4.518l0.027-0.027c-0.136-1.86-0.218-3.613-0.247-5.258
	c0-2.847-0.082-6.489-0.164-8.379H100.67z"/>
<path d="M108.063,75.673c0.027-0.354,0.027-1.204,0.027-1.644c0-0.685,0-1.315-0.027-1.753c1.041,0.027,2.109,0.027,2.904,0.027
	c0.984,0,2.299,0,3.614-0.055c0.327,8.16-0.63,11.506-6.271,11.506c-4.847,0-6.847-3.096-6.847-10.79
	c-0.027-7.64,2.082-10.297,6.957-10.297c4.71,0,6.271,2.356,6.271,6.271c0.008,0.488-0.01,0.976-0.055,1.461
	c-0.575-0.029-1.397-0.055-2.246-0.055c-0.877,0-1.671,0.026-2.245,0.055c0.027-0.411,0.027-0.794,0.027-1.096
	c0-2.082-0.63-2.767-1.781-2.767c-1.589,0-2.327,1.15-2.327,6.463c0,5.313,0.628,6.757,2.409,6.757c1.397,0,1.863-0.932,1.891-4.107
	L108.063,75.673z"/>
<path d="M43.519,84.52c-0.055,2.683-0.082,5.749-0.082,10.24c0,4.354,0.027,7.34,0.082,10.297h-4.465
	c0.082-3.204,0.137-5.45,0.137-8.818c0-1.671,0.11-3.724,0.192-5.641l-0.109-0.027c-0.302,1.89-0.658,3.806-0.932,5.011
	l-2.299,9.475h-1.917l-2.327-9.612c-0.301-1.26-0.657-3.149-0.958-4.902l-0.083,0.028c0.055,1.972,0.165,3.835,0.192,5.662
	c0,3.395,0.055,5.641,0.11,8.817h-3.943c0.055-2.957,0.083-5.943,0.083-10.297c0-4.491-0.027-7.558-0.055-10.24h5.859
	c0.411,1.806,1.124,5.146,1.918,8.379c0.183,0.957,0.383,2.354,0.575,3.642h0.109c0.219-1.315,0.411-2.657,0.603-3.614
	c0.739-3.233,1.532-6.575,1.916-8.401L43.519,84.52z"/>
<path d="M51.131,105.358c-4.566,0-6.902-3.012-6.902-10.98c0-7.853,2.575-10.16,6.902-10.16c4.326,0,6.982,2.299,6.982,10.16
	C58.113,102.347,55.704,105.358,51.131,105.358 M53.403,94.459c0-4.902-0.794-6.105-2.244-6.105c-1.45,0-2.274,1.176-2.274,6.105
	c0,5.094,0.794,6.491,2.274,6.491C52.638,100.95,53.403,99.525,53.403,94.459"/>
<path d="M68.056,96.896c1.998,0.301,2.739,1.095,3.258,3.778c0.329,1.534,0.63,3.395,0.847,4.383h-4.215
	c-0.658,0-0.767-0.301-1.068-1.699c-0.548-4.601-0.795-5.229-1.918-5.229c-0.575,0-0.904,0-1.589,0.027
	c0.027,2.792,0.082,5.201,0.219,6.9h-4.73c0.027-2.957,0.082-5.888,0.082-10.27c0-4.354-0.027-7.305-0.082-10.268h7.011
	c3.614,0,5.641,1.505,5.641,6.133c0,3.943-0.931,5.642-3.45,6.107L68.056,96.896z M67.042,91.5c0-2.792-0.685-3.287-2.109-3.258
	c-0.329-0.027-1.014,0-1.614,0.027c0,2.191,0,4.409,0.025,6.489c0.438,0,1.096,0,1.835,0.027c1.278,0,1.863-0.958,1.863-3.287"/>
<path d="M83.472,84.52c-0.025,0.491-0.025,1.368-0.025,2.053c0,0.73,0,1.726,0.025,2.247c-2.217-0.029-4.409-0.055-6.16-0.055v3.889
	c2.107,0,4.189,0,5.97-0.055c0,0.877-0.029,2.902,0,3.888c-1.753-0.055-3.863-0.082-5.97-0.082v4.08c1.779,0,4.053-0.027,6.16-0.055
	c-0.025,0.575-0.025,1.562-0.025,2.374c0,0.714,0,1.671,0.025,2.247H72.711c0.082-2.74,0.082-5.888,0.082-10.27
	c0-4.354,0-7.694-0.082-10.268L83.472,84.52z"/>
<path d="M71.67,106.098c-0.027,1.644-0.082,5.888-0.082,10.242c0,4.566,0,7.67,0.055,10.295h-4.765
	c-0.576-1.861-1.671-5.612-2.922-8.767c-0.539-1.781-0.977-3.592-1.313-5.422h-0.055c0.135,2.192,0.219,4.135,0.245,5.888
	c0.029,4.272,0.057,7.148,0.084,8.297H58.86c0-2.71,0.027-5.886,0.027-10.268s0-7.614-0.027-10.27h5.278
	c0.365,1.397,1.644,5.479,2.822,9.146c0.464,1.48,0.83,2.99,1.096,4.519l0.027-0.028c-0.136-1.863-0.219-3.615-0.247-5.258
	c0-2.847-0.082-6.491-0.164-8.379L71.67,106.098z"/>
<path d="M83.472,106.098c-0.025,0.493-0.025,1.37-0.025,2.053c0,0.74,0,1.726,0.025,2.246c-2.217-0.027-4.409-0.055-6.16-0.055
	v3.888c2.107,0,4.189,0,5.97-0.055c0,0.876-0.029,2.902,0,3.888c-1.753-0.055-3.863-0.082-5.97-0.082v4.08
	c1.779,0,4.053-0.026,6.16-0.055c-0.025,0.575-0.025,1.562-0.025,2.383c0,0.712,0,1.671,0.025,2.245H72.711
	c0.082-2.739,0.082-5.886,0.082-10.268s0-7.696-0.082-10.27H83.472z"/>
<path d="M93.714,126.635c-0.055-0.793-0.219-2.409-0.466-4.435h-4.053c-0.247,1.943-0.438,3.56-0.493,4.435h-4.655
	c1.042-5.114,3.178-17.991,3.587-20.537h7.45c0.466,2.601,2.601,15.363,3.724,20.537H93.714z M92.812,118.64
	c-0.303-2.192-0.603-4.464-0.904-6.435c-0.247-1.287-0.438-2.657-0.576-3.67h-0.164c-0.137,1.013-0.356,2.374-0.603,3.696
	c-0.274,1.972-0.603,4.219-0.914,6.381c0.603,0.028,1.151,0.028,1.589,0.028H92.812z"/>
<path d="M108.585,118.475c1.998,0.301,2.74,1.096,3.258,3.781c0.329,1.532,0.63,3.395,0.848,4.383h-4.215
	c-0.657,0-0.767-0.299-1.068-1.696c-0.548-4.601-0.794-5.231-1.917-5.231c-0.576,0-0.914,0-1.589,0.027
	c0.028,2.792,0.083,5.204,0.219,6.9h-4.737c0.027-2.957,0.082-5.886,0.082-10.268s-0.027-7.305-0.082-10.27h7.011
	c3.614,0,5.642,1.505,5.642,6.135c0,3.943-0.932,5.64-3.45,6.105V118.475z M107.572,113.08c0-2.792-0.685-3.288-2.109-3.258
	c-0.329-0.027-1.014,0-1.615,0.027c0,2.192,0,4.409,0.025,6.491c0.438,0,1.096,0,1.826,0.027c1.288,0,1.863-0.959,1.863-3.288"/>
</svg>
