<?xml version="1.0" encoding="utf-8"?>
<!-- Generator: Adobe Illustrator 24.1.0, SVG Export Plug-In . SVG Version: 6.00 Build 0)  -->
<svg version="1.1" id="Layer_1" xmlns="http://www.w3.org/2000/svg" xmlns:xlink="http://www.w3.org/1999/xlink" x="0px" y="0px"
	 viewBox="0 0 627.7 112.5" style="enable-background:new 0 0 627.7 112.5;" xml:space="preserve">
<path d="M392.1,0c-0.1,9-0.5,32.2-0.5,56.1c0,25,0,42,0.3,56.4h-26.1c-3.1-10.2-9.1-30.7-16-48c-2.9-9.8-5.3-19.7-7.2-29.7h-0.3
	c0.7,12,1.2,22.6,1.3,32.2c0.2,23.4,0.3,39.1,0.5,45.4H322c0-14.8,0.1-32.2,0.1-56.2s0-41.7-0.1-56.2h28.9c2,7.6,9,30,15.5,50.1
	c2.5,8.1,4.5,16.4,6,24.7l0.1-0.1c-0.7-10.2-1.2-19.8-1.4-28.8c0-15.6-0.5-35.5-0.9-45.9L392.1,0z"/>
<path d="M456.7,0c-0.1,2.7-0.1,7.5-0.1,11.2c0,4,0,9.5,0.1,12.3c-12.1-0.1-24.1-0.3-33.7-0.3v21.3c11.5,0,22.9,0,32.7-0.3
	c0,4.8-0.2,15.9,0,21.3c-9.6-0.3-21.2-0.5-32.7-0.5v22.3c9.7,0,22.2-0.1,33.7-0.3c-0.1,3.1-0.1,8.5-0.1,13c0,3.9,0,9.1,0.1,12.3
	h-58.9c0.5-15,0.5-32.2,0.5-56.2s0-42.1-0.5-56.2L456.7,0z"/>
<path d="M512.8,112.5c-0.3-4.3-1.2-13.2-2.6-24.3h-22.2c-1.3,10.6-2.4,19.5-2.7,24.3h-25.5c5.7-28,17.4-98.5,19.6-112.4h40.8
	c2.6,14.2,14.2,84.1,20.4,112.5L512.8,112.5z M507.9,68.7c-1.7-12-3.3-24.4-5-35.2c-1.3-7-2.4-14.5-3.2-20.1h-0.9
	c-0.8,5.5-2,13-3.3,20.2c-1.5,10.8-3.3,23.1-5,34.9c3.3,0.1,6.3,0.1,8.7,0.1L507.9,68.7z"/>
<path d="M594.2,67.8c10.9,1.6,15,6,17.8,20.7c1.8,8.4,3.4,18.6,4.6,24h-23.1c-3.6,0-4.2-1.6-5.8-9.3c-3-25.2-4.3-28.6-10.5-28.6
	c-3.2,0-5,0-8.7,0.1c0.2,15.3,0.5,28.5,1.2,37.8h-25.9c0.2-16.2,0.5-32.2,0.5-56.2s-0.2-40-0.5-56.2h38.4c19.8,0,30.9,8.2,30.9,33.6
	c0,21.6-5.1,30.9-18.9,33.4V67.8z M588.7,38.2c0-15.3-3.8-18-11.6-17.8c-1.8-0.1-5.5,0-8.8,0.1c0,12,0,24.1,0.1,35.5
	c2.4,0,6,0,10,0.1C585.5,56.2,588.6,51,588.7,38.2"/>
</svg>
