<svg id="Layer_1" data-name="Layer 1" xmlns="http://www.w3.org/2000/svg" viewBox="0 0 627.63 350.43"><path d="M22.64,81.87c0,10.2,2.4,13.49,10.2,13.49,7.5,0,9.9-3.15,9.9-9.74,0-8.4-2.86-14.4-14.85-18.75C6.3,58.93.3,48.28.3,29.69.3,10.2,10.79,0,33.3,0,58,0,66.13,9.3,66.13,29.24c0,3.15-.14,6.45-.3,10.2-3-.15-7.64-.3-11.84-.3-3.75,0-7.2,0-9.45.15.15-2.85.15-5.4.15-8.1,0-7.35-2.4-10.94-10.19-10.94-6.9,0-9.45,3.29-9.45,9.29-.15,7.35,1.8,13.05,14.84,18.14,18.75,7.35,27,17.55,27,37.19,0,20.09-9.3,30.89-32.84,30.89-25.64,0-34-10.5-34-29.69,0-4,.15-7.2.45-10.65,3.15.3,7.65.6,12.44.6a93.31,93.31,0,0,0,9.75-.3Z" transform="translate(-0.05 0)"/><path d="M106,115.76c-25,0-37.79-16.5-37.79-60.13C68.18,12.63,82.28,0,106,0s38.24,12.6,38.24,55.63c0,43.63-13.2,60.13-38.24,60.13m12.45-59.68c0-26.84-4.35-33.44-12.3-33.44S93.67,29.09,93.67,56.08C93.67,84,98,91.62,106.12,91.62s12.3-7.8,12.3-35.54" transform="translate(-0.05 0)"/><path d="M238.11,1.65c-.3,14.7-.45,31.49-.45,56.08,0,23.84.15,40.19.45,56.38H213.67c.45-17.55.75-29.84.75-48.28,0-9.15.6-20.4,1.05-30.89l-.6-.15c-1.65,10.34-3.6,20.84-5.1,27.44l-12.59,51.88h-10.5L174,61.48c-1.66-6.9-3.6-17.25-5.25-26.84l-.45.15c.3,10.79.9,21,1,31,0,18.59.3,30.89.6,48.28H148.3c.3-16.19.44-32.54.44-56.38,0-24.59-.14-41.38-.3-56.08h32.09c2.25,9.9,6.15,28.19,10.5,45.88,1.05,5.25,2.1,12.9,3.15,19.94h.6c1.2-7.19,2.25-14.54,3.3-19.79,4-17.69,8.39-36,10.49-46Z" transform="translate(-0.05 0)"/><path d="M302.89,1.65c-.15,2.7-.15,7.5-.15,11.25,0,4,0,9.44.15,12.29-12.15-.15-24.14-.3-33.74-.3V46.18c11.55,0,22.94,0,32.69-.3,0,4.8-.15,15.9,0,21.29-9.6-.3-21.14-.44-32.69-.44V89.07c9.75,0,22.19-.15,33.74-.3-.15,3.15-.15,8.54-.15,13,0,3.9,0,9.15.15,12.3H244c.45-15,.45-32.24.45-56.23s0-42.13-.45-56.23Z" transform="translate(-0.05 0)"/><path d="M365.56,1.65V28c-5.55-.15-11.09-.3-16.19-.3,0,35.24.15,78.12.45,86.52-3.6-.3-9.44-.3-13.49-.3s-9.6,0-13.35.3c.45-8.25.6-51.13.6-86.52-5.25,0-10.79.15-16.49.3.15-3.6.15-9.15.15-13.49,0-4.65,0-9.6-.15-12.9Z" transform="translate(-0.05 0)"/><path d="M441.13,1.65c-.3,15.3-.44,32.39-.44,56.23s.14,40,.44,56.23H415.34c.16-11.7.3-30.29.45-43.79H394.35c0,13.5.16,31.94.45,43.79H369c.45-16.19.45-32.39.45-56.23s0-40.93-.45-56.23h25.79c-.29,11.25-.45,30.44-.45,44.23,3.45.15,7.05.15,10.65.15,3.75,0,7.34,0,10.79-.15-.15-13.79-.15-33-.45-44.23Z" transform="translate(-0.05 0)"/><path d="M447.14,114.11c.3-15.3.3-32.39.3-56.23,0-24,0-41.08-.3-56.23h26.09c-.3,15-.3,32.09-.3,56.08,0,23.84,0,40.93.3,56.38Z" transform="translate(-0.05 0)"/><path d="M550.9,1.65c-.15,9-.45,32.24-.45,56.08,0,25,0,42,.3,56.38H524.66c-3.15-10.2-10.65-30.74-17.55-48A274.86,274.86,0,0,1,500,36.44h-.31c.76,12,1.2,22.64,1.35,32.23.15,23.4.3,39.14.46,45.44h-22.2c0-14.85.15-32.24.15-56.23s0-41.68-.15-56.23h28.94c2,7.65,10.5,30,16.95,50.08a194.67,194.67,0,0,1,6,24.74l.15-.15Q530.18,61,530,47.53c0-15.59-.45-35.53-.9-45.88Z" transform="translate(-0.05 0)"/><path d="M591.38,71.37c.15-1.94.15-6.59.15-9,0-3.75,0-7.2-.15-9.6,5.7.15,11.55.15,15.9.15,5.39,0,12.59,0,19.79-.3,1.79,44.68-3.45,63-34.34,63-26.54,0-37.49-17-37.49-59.08C555.09,14.71,566.64.16,593.33.16c25.79,0,34.34,12.9,34.34,34.34a71.23,71.23,0,0,1-.3,8c-3.15-.16-7.65-.3-12.3-.3-4.8,0-9.15.14-12.29.3.15-2.25.15-4.35.15-6,0-11.4-3.45-15.15-9.75-15.15-8.7,0-12.74,6.3-12.74,35.39s3.44,37,13.19,37c7.65,0,10.2-5.1,10.35-22.49Z" transform="translate(-0.05 0)"/><path d="M238,119.81c-.3,14.69-.45,31.48-.45,56.07,0,23.84.15,40.19.45,56.38H213.52c.45-17.54.75-29.84.75-48.28,0-9.15.6-20.39,1-30.89l-.6-.15c-1.65,10.35-3.6,20.84-5.1,27.44L197,232.26h-10.5l-12.74-52.63c-1.65-6.9-3.6-17.24-5.25-26.84l-.45.15c.3,10.8.9,21,1,31,0,18.59.3,30.89.6,48.28H148.15c.3-16.19.45-32.54.45-56.38,0-24.59-.15-41.38-.3-56.07h32.08c2.25,9.89,6.15,28.18,10.5,45.88,1,5.24,2.1,12.89,3.15,19.94h.6c1.2-7.2,2.25-14.55,3.3-19.79,4-17.7,8.39-36,10.49-46Z" transform="translate(-0.05 0)"/><path d="M279.65,233.91c-25,0-37.79-16.49-37.79-60.12,0-43,14.1-55.63,37.79-55.63s38.23,12.59,38.23,55.63c0,43.63-13.19,60.12-38.23,60.12m12.44-59.68c0-26.84-4.35-33.43-12.29-33.43s-12.45,6.44-12.45,33.43c0,27.89,4.35,35.54,12.45,35.54s12.29-7.8,12.29-35.54" transform="translate(-0.05 0)"/><path d="M372.32,187.57c10.94,1.65,15,6,17.84,20.69,1.8,8.4,3.45,18.59,4.64,24H371.72c-3.6,0-4.2-1.65-5.85-9.3-3-25.19-4.35-28.63-10.5-28.63-3.15,0-4.95,0-8.7.15.15,15.29.45,28.48,1.2,37.78H322c.15-16.19.45-32.24.45-56.23,0-23.84-.15-40-.45-56.22h38.39c19.79,0,30.89,8.24,30.89,33.58,0,21.59-5.1,30.89-18.89,33.44ZM366.77,158c0-15.29-3.75-18-11.55-17.84-1.8-.15-5.55,0-8.84.15,0,12,0,24.14.14,35.53,2.4,0,6,0,10.05.15,7,0,10.2-5.25,10.2-18" transform="translate(-0.05 0)"/><path d="M456.73,119.81c-.14,2.69-.14,7.49-.14,11.24,0,4,0,9.45.14,12.3-12.14-.16-24.14-.3-33.73-.3v21.29c11.54,0,22.94,0,32.69-.3,0,4.8-.16,15.89,0,21.29-9.6-.3-21.15-.45-32.69-.45v22.34c9.74,0,22.19-.15,33.73-.3-.14,3.15-.14,8.55-.14,13,0,3.91,0,9.15.14,12.3H397.81c.45-15,.45-32.24.45-56.23s0-42.13-.45-56.22Z" transform="translate(-0.05 0)"/><path d="M392.11,238c-.15,9-.45,32.24-.45,56.08,0,25,0,42,.3,56.37H365.87c-3.15-10.19-9.15-30.73-16-48a272.51,272.51,0,0,1-7.19-29.69h-.3c.74,12,1.2,22.64,1.34,32.24.16,23.39.31,39.14.46,45.43H322c0-14.84.15-32.23.15-56.22s0-41.69-.15-56.23h28.9c2,7.65,9,30,15.45,50.08a193,193,0,0,1,6,24.74l.15-.15q-1.12-15.3-1.35-28.79c0-15.59-.45-35.54-.9-45.88Z" transform="translate(-0.05 0)"/><path d="M456.73,238c-.14,2.7-.14,7.5-.14,11.24,0,4.05,0,9.45.14,12.3-12.14-.15-24.14-.3-33.73-.3v21.29c11.54,0,22.94,0,32.69-.3,0,4.8-.16,15.89,0,21.29-9.6-.3-21.15-.45-32.69-.45v22.34c9.74,0,22.19-.14,33.73-.3-.14,3.15-.14,8.55-.14,13.05,0,3.9,0,9.15.14,12.29H397.81c.45-15,.45-32.23.45-56.22s0-42.14-.45-56.23Z" transform="translate(-0.05 0)"/><path d="M512.81,350.41c-.3-4.34-1.2-13.19-2.55-24.28H488.07c-1.35,10.64-2.4,19.49-2.7,24.28H459.88c5.7-28,17.4-98.51,19.64-112.45h40.79c2.55,14.24,14.24,84.12,20.39,112.45Zm-4.94-43.78c-1.66-12-3.3-24.44-4.95-35.23-1.35-7-2.4-14.55-3.15-20.1h-.9c-.75,5.55-1.95,13-3.3,20.24-1.5,10.8-3.3,23.1-5,34.94,3.3.15,6.3.15,8.7.15Z" transform="translate(-0.05 0)"/><path d="M594.24,305.73c10.94,1.65,15,6,17.84,20.7,1.8,8.39,3.45,18.59,4.64,24H593.64c-3.6,0-4.2-1.64-5.85-9.29-3-25.19-4.35-28.64-10.5-28.64-3.15,0-5,0-8.7.15.15,15.29.45,28.49,1.2,37.78H543.85c.15-16.19.45-32.23.45-56.22s-.15-40-.45-56.23h38.39c19.79,0,30.89,8.24,30.89,33.59,0,21.59-5.1,30.88-18.89,33.43Zm-5.55-29.54c0-15.29-3.75-18-11.55-17.84-1.8-.15-5.55,0-8.84.15,0,12,0,24.14.14,35.54,2.4,0,6,0,10,.15,7,0,10.2-5.25,10.2-18" transform="translate(-0.05 0)"/></svg>