<?xml version="1.0" encoding="utf-8"?>
<!-- Generator: Adobe Illustrator 24.1.0, SVG Export Plug-In . SVG Version: 6.00 Build 0)  -->
<svg version="1.1" id="Layer_1" xmlns="http://www.w3.org/2000/svg" xmlns:xlink="http://www.w3.org/1999/xlink" x="0px" y="0px"
	 viewBox="0 0 627.7 238" style="enable-background:new 0 0 627.7 238;" xml:space="preserve">
<path d="M22.6,81.9c0,10.2,2.4,13.5,10.2,13.5c7.5,0,9.9-3.1,9.9-9.7c0-8.4-2.9-14.4-14.9-18.8C6.3,58.9,0.3,48.3,0.3,29.7
	C0.3,10.2,10.8,0,33.3,0C58,0,66.1,9.3,66.1,29.2c0,3.1-0.1,6.4-0.3,10.2c-3-0.1-7.6-0.3-11.8-0.3c-3.8,0-7.2,0-9.4,0.1
	c0.1-2.9,0.1-5.4,0.1-8.1c0-7.4-2.4-10.9-10.2-10.9c-6.9,0-9.4,3.3-9.4,9.3c-0.1,7.4,1.8,13.1,14.8,18.1c18.8,7.4,27,17.6,27,37.2
	c0,20.1-9.3,30.9-32.8,30.9c-25.6,0-34-10.5-34-29.7c0-4.1,0.2-7.2,0.4-10.6C3.6,75.7,8.1,76,12.9,76c3.3,0.1,6.5,0,9.8-0.3
	L22.6,81.9z"/>
<path d="M106,115.8c-25,0-37.8-16.5-37.8-60.1C68.2,12.6,82.3,0,106,0s38.2,12.6,38.2,55.6C144.2,99.3,131,115.8,106,115.8
	 M118.4,56.1c0-26.8-4.4-33.4-12.3-33.4s-12.4,6.4-12.4,33.4c0,27.9,4.4,35.5,12.4,35.5S118.4,83.8,118.4,56.1"/>
<path d="M238.1,1.7c-0.3,14.7-0.5,31.5-0.5,56.1c0,23.8,0.1,40.2,0.5,56.4h-24.4c0.5-17.6,0.8-29.8,0.8-48.3c0-9.1,0.6-20.4,1-30.9
	l-0.6-0.1c-1.6,10.3-3.6,20.8-5.1,27.4l-12.6,51.9h-10.5L174,61.5c-1.7-6.9-3.6-17.2-5.2-26.8l-0.5,0.1c0.3,10.8,0.9,21,1,31
	c0,18.6,0.3,30.9,0.6,48.3h-21.6c0.3-16.2,0.4-32.5,0.4-56.4c0-24.6-0.1-41.4-0.3-56.1h32.1c2.2,9.9,6.1,28.2,10.5,45.9
	c1,5.2,2.1,12.9,3.1,19.9h0.6c1.2-7.2,2.2-14.5,3.3-19.8c4-17.7,8.4-36,10.5-46L238.1,1.7z"/>
<path d="M302.9,1.7c-0.1,2.7-0.1,7.5-0.1,11.2c0,4,0,9.4,0.1,12.3c-12.1-0.1-24.1-0.3-33.7-0.3v21.3c11.5,0,22.9,0,32.7-0.3
	c0,4.8-0.1,15.9,0,21.3c-9.6-0.3-21.1-0.4-32.7-0.4v22.3c9.8,0,22.2-0.1,33.7-0.3c-0.1,3.1-0.1,8.5-0.1,13c0,3.9,0,9.1,0.1,12.3H244
	c0.5-15,0.5-32.2,0.5-56.2c0-23.8,0-42.1-0.5-56.2L302.9,1.7z"/>
<path d="M365.6,1.7V28c-5.5-0.1-11.1-0.3-16.2-0.3c0,35.2,0.1,78.1,0.5,86.5c-3.6-0.3-9.4-0.3-13.5-0.3s-9.6,0-13.4,0.3
	c0.5-8.2,0.6-51.1,0.6-86.5c-5.2,0-10.8,0.1-16.5,0.3c0.1-3.6,0.1-9.1,0.1-13.5c0-4.6,0-9.6-0.1-12.9L365.6,1.7z"/>
<path d="M441.1,1.7c-0.3,15.3-0.4,32.4-0.4,56.2s0.1,40,0.4,56.2h-25.8c0.2-11.7,0.3-30.3,0.5-43.8h-21.4c0,13.5,0.2,31.9,0.5,43.8
	H369c0.5-16.2,0.5-32.4,0.5-56.2s0-40.9-0.5-56.2h25.8c-0.3,11.2-0.5,30.4-0.5,44.2c3.5,0.1,7,0.1,10.6,0.1c3.8,0,7.3,0,10.8-0.1
	c-0.2-13.8-0.2-33-0.5-44.2L441.1,1.7z"/>
<path d="M447.1,114.1c0.3-15.3,0.3-32.4,0.3-56.2c0-24,0-41.1-0.3-56.2h26.1c-0.3,15-0.3,32.1-0.3,56.1c0,23.8,0,40.9,0.3,56.4
	L447.1,114.1z"/>
<path d="M550.9,1.7c-0.2,9-0.5,32.2-0.5,56.1c0,25,0,42,0.3,56.4h-26.1c-3.2-10.2-10.7-30.7-17.6-48c-2.9-9.7-5.3-19.7-7.1-29.7
	h-0.3c0.8,12,1.2,22.6,1.3,32.2c0.2,23.4,0.3,39.1,0.5,45.4h-22.2c0-14.9,0.2-32.2,0.2-56.2c0-23.8,0-41.7-0.2-56.2h28.9
	c2,7.6,10.5,30,17,50.1c2.5,8.1,4.5,16.4,6,24.7l0.2-0.1c-0.7-10.2-1.2-19.8-1.3-28.8c0-15.6-0.5-35.5-0.9-45.9L550.9,1.7z"/>
<path d="M591.4,71.4c0.2-1.9,0.2-6.6,0.2-9c0-3.8,0-7.2-0.2-9.6c5.7,0.1,11.5,0.1,15.9,0.1c5.4,0,12.6,0,19.8-0.3
	c1.8,44.7-3.4,63-34.3,63c-26.5,0-37.5-16.9-37.5-59.1c-0.2-41.8,11.4-56.4,38.1-56.4c25.8,0,34.3,12.9,34.3,34.3
	c0,2.7-0.1,5.3-0.3,8c-3.2-0.2-7.7-0.3-12.3-0.3c-4.8,0-9.2,0.1-12.3,0.3c0.2-2.2,0.2-4.4,0.2-6c0-11.4-3.4-15.1-9.8-15.1
	c-8.7,0-12.7,6.3-12.7,35.4s3.4,37,13.2,37c7.7,0,10.2-5.1,10.3-22.5L591.4,71.4z"/>
<path d="M238,119.8c-0.3,14.7-0.5,31.5-0.5,56.1c0,23.8,0.1,40.2,0.5,56.4h-24.5c0.5-17.5,0.8-29.8,0.8-48.3c0-9.1,0.6-20.4,1-30.9
	l-0.6-0.1c-1.6,10.4-3.6,20.8-5.1,27.4L197,232.3h-10.5l-12.7-52.6c-1.6-6.9-3.6-17.2-5.2-26.8l-0.5,0.1c0.3,10.8,0.9,21,1,31
	c0,18.6,0.3,30.9,0.6,48.3h-21.6c0.3-16.2,0.4-32.5,0.4-56.4c0-24.6-0.1-41.4-0.3-56.1h32.1c2.2,9.9,6.1,28.2,10.5,45.9
	c1,5.2,2.1,12.9,3.1,19.9h0.6c1.2-7.2,2.2-14.5,3.3-19.8c4-17.7,8.4-36,10.5-46L238,119.8z"/>
<path d="M279.6,233.9c-25,0-37.8-16.5-37.8-60.1c0-43,14.1-55.6,37.8-55.6s38.2,12.6,38.2,55.6C317.9,217.4,304.7,233.9,279.6,233.9
	 M292.1,174.2c0-26.8-4.4-33.4-12.3-33.4s-12.5,6.4-12.5,33.4c0,27.9,4.4,35.5,12.5,35.5S292.1,202,292.1,174.2"/>
<path d="M372.3,187.6c10.9,1.6,15,6,17.8,20.7c1.8,8.4,3.5,18.6,4.6,24h-23.1c-3.6,0-4.2-1.6-5.9-9.3c-3-25.2-4.4-28.6-10.5-28.6
	c-3.1,0-5,0-8.7,0.1c0.1,15.3,0.5,28.5,1.2,37.8H322c0.1-16.2,0.5-32.2,0.5-56.2c0-23.8-0.1-40-0.5-56.2h38.4
	c19.8,0,30.9,8.2,30.9,33.6c0,21.6-5.1,30.9-18.9,33.4L372.3,187.6z M366.8,158c0-15.3-3.8-18-11.5-17.8c-1.8-0.1-5.5,0-8.8,0.1
	c0,12,0,24.1,0.1,35.5c2.4,0,6,0,10,0.1C363.6,176,366.8,170.8,366.8,158"/>
<path d="M456.7,119.8c-0.1,2.7-0.1,7.5-0.1,11.2c0,4,0,9.5,0.1,12.3c-12.1-0.2-24.1-0.3-33.7-0.3v21.3c11.5,0,22.9,0,32.7-0.3
	c0,4.8-0.2,15.9,0,21.3c-9.6-0.3-21.2-0.5-32.7-0.5v22.3c9.7,0,22.2-0.1,33.7-0.3c-0.1,3.1-0.1,8.5-0.1,13c0,3.9,0,9.1,0.1,12.3
	h-58.9c0.5-15,0.5-32.2,0.5-56.2c0-23.8,0-42.1-0.5-56.2L456.7,119.8z"/>
</svg>
